<svg width="76" height="27" viewBox="0 0 76 27" fill="none" xmlns="http://www.w3.org/2000/svg">
<path d="M70.8942 20.3677C64.8282 20.2656 62.4917 15.6782 57.9175 12.7118C55.8847 11.3924 53.2635 11.2568 50.9043 12.0887C48.1028 13.0759 45.6107 14.4045 43.3976 16.1261L37.2386 20.9131L32.9737 24.1994C31.0719 25.665 27.7333 27.2587 25.3 26.9646C23.5785 26.7574 22.174 25.886 21.2686 24.7402C18.7879 21.6017 19.1466 17.4607 19.773 13.7585L20.9327 6.9086C21.1718 5.49018 20.9744 4.04738 20.4259 2.75541C19.9533 1.64474 18.6683 1.19986 17.3169 1.59903C9.77232 3.83256 4.62869 13.4583 2.27135 19.4992C1.70194 20.9588 1.48178 22.4503 2.00563 23.8931C2.16127 24.3213 2.18974 24.7098 1.71903 24.9322C1.33373 25.115 0.671325 24.952 0.473931 24.5056C-0.94389 21.2879 1.11546 17.5841 2.76484 14.4243C5.40119 9.37066 9.43827 3.38006 15.4569 0.700135C16.9032 0.0556728 18.655 -0.325215 20.1374 0.374095C22.9389 1.69654 22.863 5.97467 22.3752 8.72468L21.1339 15.7315C20.6138 18.6643 20.9896 23.5305 23.8442 25.1059C27.0101 26.8534 30.9466 23.9389 33.6361 21.8257L42.2512 15.055C44.4207 13.3502 46.8691 12.0491 49.5662 11.0466C53.2825 9.66471 57.2721 10.1614 60.1021 12.4711L61.6945 13.7707L66.0524 17.4287C68.0586 18.739 70.5962 19.4032 73.2668 18.5546L66.3352 14.6056C66.0543 14.4456 65.9385 14.0099 66.0087 13.792C66.079 13.5741 66.7471 13.1887 66.9767 13.3197L75.5444 18.2042C75.7342 18.3124 76.0056 18.6887 75.9999 18.867C75.9942 19.0742 75.6469 19.3606 75.3546 19.5206L66.7736 24.2131C66.3713 24.4325 65.6272 24.1522 65.5304 23.8825C65.3292 23.334 65.6918 23.1314 66.2156 22.8541L70.8999 20.3692L70.8942 20.3677Z" fill="currentColor"/>
</svg>
