<svg width="74" height="35" viewBox="0 0 74 35" fill="none" xmlns="http://www.w3.org/2000/svg">
<path d="M37.8252 27.1801L41.9874 15.3625C43.1625 12.0255 44.4829 8.87783 46.4951 5.99309C48.9234 2.50967 52.228 1.1862 56.1626 2.67697L62.6078 5.11898C65.3348 6.15194 68.3448 6.43226 70.9876 5.04814C72 4.5192 72.9724 3.68944 73.8212 2.89237C74.0704 2.65799 73.9655 1.85926 73.7998 1.58178C73.6095 1.25963 72.7183 1.00732 72.4344 1.32864C70.2812 3.77635 67.3201 4.48531 64.3532 3.49599L61.5665 2.56752L56.3579 0.610383C52.4335 -0.864795 48.4838 0.400157 45.7969 3.71149C43.4484 6.60737 41.8075 9.92383 40.5441 13.4958L36.9361 23.6847L36.1157 25.8432C35.4804 27.5172 34.7912 29.1764 33.6118 30.5145C31.9982 32.3463 29.5751 32.5566 27.6046 31.1161C24.9207 29.1543 23.245 26.2728 22.1894 23.0535L19.132 13.7322C18.2307 10.9874 16.8843 8.43686 14.9103 6.46026C13.1076 4.65748 10.612 4.65807 8.79107 6.43732C5.04815 10.0949 3.78926 17.672 3.55748 23.0479L1.97653 18.0537C1.80186 17.5067 1.00946 17.0194 0.584117 17.2012C-0.0481862 17.4725 -0.0864546 18.0602 0.0938706 18.7182L3.36359 30.5639C3.43082 30.8098 3.85709 31.4678 4.09515 31.3837L5.18045 31.0023L13.3333 21.0873C13.4482 20.7228 13.3335 20.0246 13.049 19.8524C12.7645 19.6802 12.0599 19.6847 11.6887 19.8243L5.71304 27.0781L5.652 21.9426C5.93571 17.5778 7.26681 10.4924 10.2891 7.74954C11.392 6.74921 12.91 6.99673 13.8362 8.09521C14.9802 9.45063 15.8907 10.9835 16.4703 12.7161L19.3639 21.3815C20.9135 26.0241 23.1443 31.1701 27.5349 33.3999C29.933 34.6161 32.5799 34.2771 34.5342 32.3698C35.9755 30.9643 37.1092 29.2249 37.8284 27.1811L37.8252 27.1801Z" fill="currentColor"/>
</svg>
