<svg width="68" height="43" viewBox="0 0 68 43" fill="none" xmlns="http://www.w3.org/2000/svg">
<path d="M25.9296 22.6551C18.0553 27.0345 11.1104 32.4144 5.12247 39.5409L20.5105 36.6045C20.9501 36.7768 21.4674 37.1213 21.6875 37.459C21.8791 37.7488 21.638 38.4989 21.3089 38.8428L1.59375 42.7024C1.01527 42.8496 -0.19337 42.2284 0.0262699 41.5539L5.94331 23.3791C6.06109 23.0178 6.83809 22.6004 7.17391 22.6519C7.59765 22.7178 8.14602 23.2095 8.30261 23.7308L3.98354 37.1811C7.98672 33.1224 11.7951 29.3099 16.3908 25.9145C24.2998 20.0738 33.1503 16.0104 42.7546 14.5859C48.5728 7.76028 56.8411 3.22183 65.0845 0.19578C65.5475 0.0258818 66.202 -0.100195 66.4915 0.109256C66.781 0.318707 67.0768 1.04951 67.0312 1.41032C66.9857 1.77113 66.3437 2.2478 65.8866 2.41866C58.4242 5.2319 51.8431 8.56066 46.298 14.2768C52.276 14.3379 58.8685 14.5519 63.047 18.6962C67.7646 23.3753 64.6821 30.5366 59.4174 34.6204C57.0122 36.4858 54.3973 37.4924 51.3962 37.9549C48.353 38.4252 45.459 37.7175 42.7937 36.0463C39.0799 33.7221 37.394 29.3 37.9748 24.8448C38.329 22.1247 39.4051 19.8086 40.7854 17.3769C35.4371 18.3103 30.8142 20.1414 25.9286 22.6611L25.9296 22.6551ZM62.9095 25.9309C63.5219 23.6734 62.7373 21.5164 61.0451 20.0965C57.0761 16.7738 49.4022 16.3093 44.0202 16.9504C42.1737 19.1955 40.8017 21.8276 40.3303 24.7744C39.43 30.397 43.0677 35.1397 48.6014 35.6049C52.6132 35.945 56.4981 34.267 59.4279 31.368C60.9752 29.8375 62.3017 28.1582 62.9087 25.9283L62.9095 25.9309Z" fill="currentColor"/>
</svg>
