<svg width="76" height="31" viewBox="0 0 76 31" fill="none" xmlns="http://www.w3.org/2000/svg">
<path d="M47.6821 14.8872C44.2199 11.6205 43.7338 6.57028 40.4877 3.58663C38.516 1.77418 36.0385 1.76692 33.8802 3.168C31.0736 4.99014 28.6354 7.28171 27.0836 10.275L22.2685 19.5624C20.1765 23.5986 18.1065 27.6397 14.0968 29.8926C8.50339 33.036 1.76817 29.0674 0.0100924 23.2647C-0.0905798 22.9283 0.587116 22.2871 0.921054 22.2919C1.34093 22.2992 1.98425 22.6525 2.18314 23.1026C3.21933 25.4546 4.81781 27.5284 7.27568 28.5061C11.9091 30.3475 16.2871 26.2629 18.5117 21.8927L22.9364 13.2006C25.3795 8.40452 28.7041 3.14864 33.6715 0.806247C36.0287 -0.304456 38.7836 -0.338323 40.9223 1.14987C45.1211 4.06819 45.5483 9.01189 48.3303 12.4239C49.9067 14.3573 52.0748 15.3059 54.5524 15.1099C55.8979 14.6574 57.2607 14.125 58.4196 13.2926L71.8115 3.67375L55.5787 2.84616C55.1687 2.82438 54.5794 2.68162 54.4468 2.41544C54.3142 2.14926 54.2872 1.48138 54.3854 1.2031C54.5008 0.876425 55.289 0.707034 55.7752 0.731232L74.7457 1.65077C75.0674 1.66528 75.7156 1.91453 75.8703 2.13473C76.0496 2.39123 76.0422 3.01798 75.8531 3.38337L66.5618 21.3385C66.2402 21.9604 65.7196 22.2653 65.037 22.0306C64.487 21.8418 64.2783 21.0021 64.6024 20.373L71.8459 6.29684L59.2422 15.3422C55.6745 17.9023 51.046 18.0596 47.6796 14.8824L47.6821 14.8872Z" fill="currentColor"/>
</svg>
