<svg width="76" height="34" viewBox="0 0 76 34" fill="none" xmlns="http://www.w3.org/2000/svg">
<path d="M41.4432 28.2323L34.3373 17.9132C32.3309 14.9993 30.2338 12.3061 27.5376 10.0475C24.2833 7.31975 20.7477 6.9059 17.3394 9.37316L11.7564 13.4147C9.39413 15.1245 6.56201 16.1817 3.64933 15.5363C2.5339 15.2904 1.37844 14.7436 0.350883 14.196C0.0490888 14.0349 -0.0584029 13.2365 0.0289824 12.9254C0.128511 12.5647 0.922746 12.0883 1.28075 12.3242C3.99884 14.1241 7.04227 14.0346 9.64755 12.3043L12.0947 10.6798L16.6109 7.42941C20.0133 4.9799 24.1563 5.16865 27.6152 7.66271C30.6389 9.84417 33.0895 12.6165 35.2425 15.7342L41.388 24.626L42.744 26.4951C43.7947 27.9449 44.8935 29.3664 46.3816 30.3496C48.4179 31.6962 50.8117 31.2659 52.3373 29.3604C54.4152 26.7654 55.2797 23.546 55.4572 20.1628L55.9723 10.3665C56.1249 7.48153 56.7579 4.66771 58.1468 2.2439C59.4156 0.0326628 61.8248 -0.619002 64.0473 0.622533C68.6161 3.17485 71.8115 10.1596 73.4401 15.2881L73.6609 10.0543C73.6866 9.48058 74.3241 8.80314 74.7822 8.8675C75.4634 8.96406 75.6539 9.52134 75.6518 10.2036L75.5915 22.4921C75.5909 22.7471 75.3514 23.4936 75.0997 23.4747L73.9524 23.3901L63.4917 15.9504C63.2855 15.6287 63.2138 14.9247 63.4434 14.6842C63.673 14.4436 64.3543 14.2638 64.749 14.3015L72.4127 19.7415L71.1295 14.7686C69.715 10.6296 66.5784 4.13836 62.9443 2.28064C61.6183 1.60334 60.2178 2.23896 59.6108 3.54134C58.8609 5.1486 58.3825 6.86613 58.2759 8.69005L57.7475 17.8105C57.4651 22.6967 56.6567 28.2469 53.0015 31.5466C51.0045 33.3473 48.3611 33.7118 45.9762 32.3815C44.2177 31.4016 42.6688 30.0189 41.4405 28.2341L41.4432 28.2323Z" fill="currentColor"/>
</svg>
