<svg width="81" height="68" viewBox="0 0 81 68" fill="none" xmlns="http://www.w3.org/2000/svg">
<path d="M2.68532 3.28112C10.1399 0.253778 20.6265 4.00527 27.3566 8.10997L32.6373 11.3328L41.8464 17.3621C40.9051 13.3388 40.1085 9.69027 40.5818 5.82517C40.9996 2.39665 43.3342 -0.0595665 46.8608 0.00149055C55.1009 0.641591 61.3202 11.7602 59.1527 19.5564C57.7336 24.6642 52.0659 25.0043 46.7955 22.9564C50.1575 30.7118 54.6739 37.4008 59.5266 44.0425C64.3462 50.6384 69.915 58.7481 77.2243 62.6569L73.851 51.1339C73.757 50.8077 74.6209 50.2197 74.9541 50.2214C75.3444 50.2249 76.1758 50.537 76.3016 50.952L80.7858 65.6011C80.8725 65.8831 80.821 66.6694 80.5755 66.8185C80.3299 66.9675 79.7965 67.1302 79.3821 67.2389L63.8402 63.968C63.0632 63.9489 62.6707 63.4186 62.556 62.7453C62.4584 62.1575 63.1153 61.3333 63.841 61.472L73.0608 63.2144L70.7387 61.1726C66.638 57.5686 63.3287 53.4884 60.0699 49.0949C55.9827 43.5854 52.1515 38.2129 48.6883 32.2807L43.228 21.1072L37.8196 17.7146C29.5026 12.5002 21.7752 6.03966 11.1923 4.79147C8.80413 4.51001 6.4772 4.6144 4.16162 5.31809C2.12522 5.93836 2.40686 8.18229 0.924989 7.65344C0.435031 7.47839 -0.125767 6.63702 0.0248228 6.12196C0.421164 4.75693 1.39367 3.8119 2.68625 3.28667L2.68532 3.28112ZM43.6617 14.3825L45.3077 19.4626C47.5161 20.4947 49.5271 21.383 51.8206 21.7115C54.601 22.1102 56.8034 20.3996 57.1227 17.5431C57.9266 10.3238 50.0482 -0.0606252 44.65 3.15226C42.2789 4.56606 42.6103 11.1353 43.6644 14.382L43.6617 14.3825Z" fill="currentColor"/>
</svg>
