<svg width="130" height="23" viewBox="0 0 130 23" fill="none" xmlns="http://www.w3.org/2000/svg">
<g clip-path="url(#clip0_8277_453)">
<path d="M31.1183 18.9962C30.2793 18.9962 29.6267 18.7613 29.1618 18.293C28.6969 17.8247 28.4637 17.101 28.4637 16.1218V7.5869H26.6826C26.5918 7.5869 26.5167 7.56167 26.4587 7.51122C26.4008 7.46076 26.3711 7.38981 26.3711 7.29836V6.83322L28.4888 6.68185L28.7846 2.21335C28.7924 2.13767 28.8237 2.07144 28.8769 2.0131C28.9301 1.95476 29.0021 1.9248 29.0929 1.9248H29.647V6.69446H33.5458V7.58533H29.647V16.0572C29.647 16.4009 29.6908 16.6958 29.7769 16.9417C29.8646 17.1893 29.9851 17.3911 30.1385 17.5504C30.2918 17.7096 30.4718 17.8263 30.68 17.902C30.8882 17.9777 31.112 18.0155 31.353 18.0155C31.652 18.0155 31.9087 17.9714 32.1247 17.8831C32.3407 17.7948 32.5269 17.6986 32.685 17.5945C32.8431 17.4904 32.9714 17.3943 33.0716 17.306C33.1718 17.2177 33.25 17.1751 33.3079 17.1751C33.3737 17.1751 33.441 17.2177 33.5067 17.3012L33.8307 17.8279C33.5145 18.1795 33.1139 18.4617 32.6286 18.6746C32.1434 18.8874 31.6379 18.9947 31.1151 18.9947L31.1183 18.9962Z" fill="white"/>
<path d="M36.625 18.7964V6.30699H37.2479C37.3888 6.30699 37.4905 6.33695 37.5531 6.39529C37.6158 6.45362 37.6502 6.55454 37.6596 6.69644L37.7597 9.33276C38.1589 8.32049 38.6895 7.52739 39.3547 6.95503C40.0183 6.38267 40.8369 6.0957 41.8088 6.0957C42.1829 6.0957 42.5273 6.13512 42.8434 6.21554C43.1596 6.29595 43.4585 6.40948 43.7403 6.56084L43.5775 7.38864C43.5525 7.52266 43.4695 7.58888 43.3286 7.58888C43.2785 7.58888 43.2081 7.57154 43.1173 7.53843C43.0266 7.50531 42.9123 7.46747 42.7746 7.4249C42.6368 7.3839 42.4694 7.34606 42.2706 7.31137C42.0718 7.27826 41.8433 7.26092 41.585 7.26092C40.6459 7.26092 39.8759 7.55419 39.2733 8.13917C38.6707 8.72414 38.1839 9.56927 37.8098 10.6746V18.7948H36.6266L36.625 18.7964Z" fill="white"/>
<path d="M53.8295 18.7962C53.5807 18.7962 53.4257 18.6795 53.3678 18.4446L53.1925 16.8505C52.8513 17.1847 52.5132 17.4859 52.1767 17.7539C51.8402 18.022 51.4896 18.2475 51.1233 18.4319C50.7571 18.6164 50.3627 18.7568 49.9401 18.8529C49.5159 18.9491 49.0511 18.998 48.5455 18.998C48.1213 18.998 47.7113 18.9349 47.3121 18.8104C46.913 18.6842 46.5609 18.4919 46.2525 18.2333C45.9458 17.9747 45.6985 17.642 45.5106 17.2352C45.3228 16.8284 45.2305 16.3428 45.2305 15.7736C45.2305 15.2469 45.3807 14.7565 45.6797 14.3056C45.9786 13.8531 46.4466 13.4605 47.0805 13.1262C47.7144 12.7919 48.5345 12.5239 49.5347 12.3236C50.5348 12.1234 51.7384 12.0051 53.1408 11.972V10.6665C53.1408 9.51229 52.8935 8.623 52.399 8.00019C51.9044 7.37737 51.1719 7.06518 50.1999 7.06518C49.602 7.06518 49.0933 7.14875 48.6738 7.31588C48.2544 7.48302 47.8991 7.6675 47.608 7.86774C47.3168 8.06799 47.0805 8.25247 46.8974 8.4196C46.7143 8.58674 46.5609 8.67031 46.4356 8.67031C46.2697 8.67031 46.1445 8.59462 46.0616 8.44483L45.8503 8.0806C46.4983 7.42783 47.1791 6.93431 47.8928 6.60004C48.6065 6.26577 49.4173 6.09863 50.322 6.09863C50.9856 6.09863 51.5678 6.20585 52.0656 6.41871C52.5633 6.63157 52.9765 6.93746 53.3052 7.3348C53.6339 7.73214 53.8796 8.21305 54.0471 8.77752C54.213 9.342 54.2959 9.9727 54.2959 10.6665V18.7993H53.8233L53.8295 18.7962ZM48.846 18.1308C49.3281 18.1308 49.7695 18.0788 50.1733 17.9747C50.5755 17.8706 50.9496 17.724 51.2939 17.5348C51.6383 17.3471 51.9607 17.1232 52.2597 16.8631C52.5586 16.6045 52.8529 16.3238 53.144 16.0227V12.7714C51.9638 12.8045 50.9496 12.8944 50.0981 13.041C49.2467 13.1877 48.5455 13.3864 47.993 13.6371C47.4405 13.8878 47.0335 14.1873 46.7722 14.5342C46.5108 14.8811 46.3793 15.2769 46.3793 15.7199C46.3793 16.1378 46.4482 16.5004 46.5843 16.8047C46.7221 17.1106 46.9021 17.3613 47.1259 17.5584C47.3497 17.7555 47.6111 17.899 47.91 17.992C48.209 18.0835 48.5205 18.1308 48.8444 18.1308H48.846Z" fill="white"/>
<path d="M66.8314 18.7961C66.6264 18.7961 66.5075 18.6873 66.4746 18.4697L66.3494 16.4987C65.8 17.2524 65.1583 17.85 64.4226 18.2931C63.687 18.7361 62.8606 18.9585 61.9465 18.9585C60.4252 18.9585 59.2372 18.4271 58.3842 17.3644C57.5312 16.3016 57.1055 14.7076 57.1055 12.5821C57.1055 11.6707 57.2244 10.8193 57.4608 10.0278C57.6987 9.23782 58.0477 8.55194 58.5094 7.97012C58.9712 7.3883 59.5362 6.93104 60.2061 6.59519C60.876 6.26092 61.6476 6.09379 62.5194 6.09379C63.3912 6.09379 64.0877 6.24989 64.7028 6.56366C65.3179 6.87743 65.8501 7.33626 66.2993 7.93858V0.53418H67.4826V18.7961H66.8299H66.8314ZM62.2815 17.9935C63.1048 17.9935 63.8498 17.7806 64.515 17.3533C65.1802 16.926 65.775 16.3332 66.2993 15.5716V8.98239C65.8172 8.27127 65.2866 7.76987 64.7091 7.47659C64.1315 7.18332 63.4757 7.03668 62.7432 7.03668C62.0107 7.03668 61.3706 7.17071 60.8212 7.43875C60.2718 7.7068 59.8132 8.08522 59.4423 8.57401C59.0729 9.0628 58.7943 9.64935 58.6065 10.3305C58.4186 11.0132 58.3263 11.7638 58.3263 12.5837C58.3263 14.4411 58.6675 15.8081 59.3499 16.6816C60.0323 17.5567 61.009 17.9935 62.2831 17.9935H62.2815Z" fill="white"/>
<path d="M76.3166 6.10645C77.0146 6.10645 77.6595 6.22786 78.2543 6.47067C78.8475 6.71349 79.364 7.06668 79.7991 7.53182C80.2342 7.99696 80.5754 8.56775 80.8211 9.24575C81.0669 9.92375 81.189 10.7011 81.189 11.5809C81.189 11.7654 81.1623 11.89 81.1076 11.9578C81.0528 12.0256 80.9683 12.0587 80.8524 12.0587H71.9075V12.2968C71.9075 13.2333 72.0155 14.058 72.2315 14.7691C72.4475 15.4802 72.7542 16.0762 73.1534 16.5571C73.5525 17.038 74.033 17.4007 74.598 17.6435C75.163 17.8863 75.7938 18.0077 76.4919 18.0077C77.1148 18.0077 77.6548 17.9383 78.1103 17.8012C78.5673 17.6624 78.9523 17.5079 79.2638 17.336C79.5753 17.1642 79.8226 17.0096 80.0041 16.8709C80.1857 16.7321 80.3203 16.6643 80.4032 16.6643C80.5112 16.6643 80.5942 16.7069 80.6521 16.7905L80.9761 17.1925C80.7773 17.4433 80.5128 17.6782 80.1841 17.8958C79.8554 18.1134 79.4907 18.2994 79.0885 18.4539C78.6847 18.6085 78.2543 18.7315 77.7925 18.8245C77.3324 18.9159 76.8691 18.9632 76.4042 18.9632C75.5559 18.9632 74.7843 18.815 74.0862 18.517C73.3881 18.2206 72.7902 17.787 72.291 17.2178C71.7917 16.6486 71.4051 15.9516 71.1312 15.1286C70.8588 14.3039 70.7227 13.3611 70.7227 12.2983C70.7227 11.4027 70.8494 10.5765 71.103 9.81968C71.3565 9.06284 71.7212 8.41007 72.2002 7.86136C72.6776 7.31423 73.2629 6.88536 73.9563 6.57474C74.6497 6.2657 75.437 6.1096 76.3166 6.1096V6.10645ZM76.3354 6.99731C75.6968 6.99731 75.1239 7.09822 74.6184 7.29847C74.1128 7.49871 73.6746 7.78726 73.3068 8.1641C72.9389 8.54094 72.64 8.99189 72.4115 9.5201C72.183 10.0483 72.0327 10.6364 71.9576 11.2892H80.1168C80.1168 10.6207 80.026 10.0199 79.8429 9.48857C79.6598 8.9572 79.4031 8.50783 79.0713 8.13887C78.7395 7.77149 78.3419 7.48768 77.8771 7.29216C77.4122 7.09507 76.8988 6.99731 76.3354 6.99731Z" fill="white"/>
<path d="M84.0029 18.7968V0.145508H87.0801V7.31182C87.5778 6.83564 88.1272 6.45092 88.725 6.15764C89.3229 5.86437 90.0257 5.71773 90.8302 5.71773C91.5283 5.71773 92.1465 5.83756 92.6865 6.07565C93.2265 6.31374 93.6773 6.64801 94.0388 7.08004C94.4004 7.51049 94.6743 8.02609 94.8605 8.62367C95.0468 9.22126 95.1407 9.88034 95.1407 10.6009V18.7968H92.0636V10.6009C92.0636 9.81412 91.8836 9.20549 91.522 8.77504C91.1605 8.34459 90.6189 8.12857 89.8958 8.12857C89.3636 8.12857 88.8659 8.24998 88.4011 8.4928C87.9362 8.73562 87.4948 9.06516 87.0801 9.48458V18.7968H84.0029Z" fill="#2EA8E1"/>
<path d="M103.452 5.7168C104.256 5.7168 104.998 5.84609 105.676 6.10625C106.354 6.36642 106.936 6.74484 107.426 7.24151C107.916 7.73976 108.297 8.34996 108.571 9.07369C108.845 9.79742 108.983 10.6236 108.983 11.5523C108.983 11.7873 108.972 11.9812 108.952 12.1357C108.931 12.2903 108.894 12.4117 108.839 12.5C108.786 12.5883 108.712 12.6513 108.621 12.6876C108.529 12.7254 108.413 12.7444 108.272 12.7444H100.375C100.465 14.0672 100.819 15.0369 101.434 15.6566C102.049 16.2763 102.863 16.5853 103.876 16.5853C104.374 16.5853 104.804 16.527 105.166 16.4103C105.527 16.2936 105.843 16.1627 106.112 16.0208C106.382 15.8789 106.62 15.7496 106.823 15.6314C107.027 15.5147 107.224 15.4564 107.415 15.4564C107.54 15.4564 107.648 15.4816 107.739 15.532C107.829 15.5825 107.909 15.6535 107.975 15.7449L108.872 16.8739C108.531 17.2759 108.149 17.6118 107.726 17.8845C107.302 18.1573 106.861 18.3733 106.399 18.5373C105.937 18.7013 105.469 18.8148 104.99 18.8826C104.513 18.9489 104.05 18.9835 103.602 18.9835C102.713 18.9835 101.887 18.8353 101.123 18.5373C100.359 18.2393 99.6937 17.801 99.1303 17.2192C98.5652 16.6373 98.1207 15.9183 97.7967 15.0606C97.4727 14.2028 97.3115 13.2095 97.3115 12.0805C97.3115 11.2023 97.4524 10.3761 97.7357 9.6019C98.0174 8.82772 98.4228 8.15445 98.9503 7.58051C99.4777 7.00815 100.121 6.55405 100.882 6.2182C101.642 5.88393 102.5 5.7168 103.455 5.7168H103.452ZM103.514 7.93843C102.617 7.93843 101.915 8.19387 101.409 8.70316C100.902 9.21402 100.578 9.93775 100.437 10.8743H106.217C106.217 10.4723 106.163 10.0938 106.055 9.73908C105.947 9.38273 105.781 9.07211 105.557 8.80407C105.333 8.53602 105.05 8.32474 104.71 8.17021C104.369 8.01569 103.971 7.93843 103.514 7.93843Z" fill="#2EA8E1"/>
<path d="M114.763 0.145508V18.7953H111.686V0.145508H114.763Z" fill="#2EA8E1"/>
<path d="M118.239 23V5.91913H120.12C120.319 5.91913 120.49 5.96485 120.63 6.05788C120.771 6.14933 120.864 6.29282 120.904 6.48518L121.153 7.6772C121.668 7.08277 122.26 6.60186 122.928 6.23448C123.596 5.86552 124.379 5.68262 125.276 5.68262C125.974 5.68262 126.611 5.82925 127.189 6.12253C127.766 6.4158 128.264 6.83995 128.683 7.39654C129.103 7.95313 129.427 8.63902 129.655 9.45419C129.884 10.2694 129.998 11.2044 129.998 12.2592C129.998 13.221 129.87 14.1135 129.611 14.9318C129.353 15.7517 128.985 16.4628 128.51 17.0652C128.032 17.6675 127.455 18.1389 126.778 18.4763C126.101 18.8153 125.343 18.9841 124.504 18.9841C123.781 18.9841 123.169 18.8737 122.667 18.6514C122.164 18.429 121.714 18.1216 121.314 17.729V23H118.237H118.239ZM124.219 8.12815C123.579 8.12815 123.033 8.26375 122.581 8.53653C122.128 8.80931 121.707 9.19088 121.316 9.6844V15.4584C121.665 15.8936 122.045 16.1964 122.455 16.3682C122.867 16.5401 123.308 16.6252 123.783 16.6252C124.257 16.6252 124.67 16.5369 125.047 16.3619C125.425 16.1869 125.745 15.9189 126.007 15.5594C126.268 15.1999 126.47 14.7458 126.611 14.197C126.752 13.6499 126.824 13.0035 126.824 12.2576C126.824 11.5118 126.763 10.867 126.644 10.3435C126.523 9.82 126.351 9.39586 126.127 9.06947C125.904 8.74308 125.631 8.50499 125.312 8.35363C124.993 8.20226 124.628 8.12815 124.221 8.12815H124.219Z" fill="#2EA8E1"/>
<path d="M12.7229 0V2.33201H11.4379H10.1544V0H6.06152V5.40824L11.3815 9.68753L16.8158 5.40824V0H12.7229Z" fill="#FAB42E"/>
<path d="M11.4942 13.2334L6.06152 17.5127V22.9209H10.1529V20.5905H11.4379H12.7229V22.9209H16.8158V17.5127L11.4942 13.2334Z" fill="#2EA8E1"/>
<path d="M11.3818 9.68753L16.8161 5.40824V0H12.7232V2.33201H11.4382" fill="url(#paint0_linear_8277_453)"/>
<path d="M5.36854 6.0625H0V11.4786V16.8947H5.36854L9.86527 11.5354L5.36854 6.0625Z" fill="#E61A71"/>
<path d="M11.4942 13.2334L6.06152 17.5127V22.9209H10.1529V20.5905H11.4379" fill="url(#paint1_linear_8277_453)"/>
<path d="M9.86527 11.5354L5.36854 6.0625H0V11.4786" fill="url(#paint2_linear_8277_453)"/>
<path d="M17.7174 6.0625L13.2207 11.4219L17.7174 16.8947H23.086V11.4786V6.0625H17.7174Z" fill="#92C02E"/>
<path d="M13.2207 11.4219L17.7174 16.8948H23.086V11.4786L13.2207 11.4219Z" fill="url(#paint3_linear_8277_453)"/>
</g>
<defs>
<linearGradient id="paint0_linear_8277_453" x1="14.099" y1="0" x2="14.099" y2="9.68753" gradientUnits="userSpaceOnUse">
<stop stop-color="#F6B02C"/>
<stop offset="1" stop-color="#F8DDAC"/>
</linearGradient>
<linearGradient id="paint1_linear_8277_453" x1="8.77866" y1="22.9209" x2="8.77866" y2="13.2334" gradientUnits="userSpaceOnUse">
<stop stop-color="#40A7DE"/>
<stop offset="1" stop-color="#C5E0EE"/>
</linearGradient>
<linearGradient id="paint2_linear_8277_453" x1="0" y1="8.79816" x2="9.86527" y2="8.79816" gradientUnits="userSpaceOnUse">
<stop stop-color="#E61973"/>
<stop offset="1" stop-color="#F0BED4"/>
</linearGradient>
<linearGradient id="paint3_linear_8277_453" x1="13.2207" y1="14.1591" x2="23.086" y2="14.1591" gradientUnits="userSpaceOnUse">
<stop stop-color="#D0E09F"/>
<stop offset="1" stop-color="#92C02D"/>
</linearGradient>
<clipPath id="clip0_8277_453">
<rect width="130" height="23" fill="white"/>
</clipPath>
</defs>
</svg>
