<svg width="247" height="242" viewBox="0 0 247 242" fill="none" xmlns="http://www.w3.org/2000/svg">
<path d="M247 241.5H80.8887C80.4952 239.684 80.1522 237.84 79.8663 235.967C71.1336 178.752 93.6853 119.397 134.158 78.0068C164.306 47.1762 204.86 22.9022 247 17.249V241.5Z" fill="#E61A71"/>
<g filter="url(#filter0_d_8340_4075)">
<g clip-path="url(#clip0_8340_4075)">
<rect x="29" y="22" width="185" height="164" rx="12" fill="white"/>
<path d="M52.4347 64V49.4545H61.7528V51.6634H55.0696V55.6122H61.1136V57.821H55.0696V64H52.4347ZM64.0398 64V53.0909H66.6108V64H64.0398ZM65.3324 51.5426C64.9252 51.5426 64.5748 51.4077 64.2812 51.1378C63.9877 50.8632 63.8409 50.5341 63.8409 50.1506C63.8409 49.7623 63.9877 49.4332 64.2812 49.1634C64.5748 48.8887 64.9252 48.7514 65.3324 48.7514C65.7443 48.7514 66.0947 48.8887 66.3835 49.1634C66.6771 49.4332 66.8239 49.7623 66.8239 50.1506C66.8239 50.5341 66.6771 50.8632 66.3835 51.1378C66.0947 51.4077 65.7443 51.5426 65.3324 51.5426ZM71.8256 57.608V64H69.2546V53.0909H71.712V54.9446H71.8398C72.0908 54.3338 72.4909 53.8485 73.0401 53.4886C73.5941 53.1288 74.2783 52.9489 75.0927 52.9489C75.8455 52.9489 76.5013 53.1098 77.06 53.4318C77.6235 53.7538 78.0591 54.2202 78.3668 54.831C78.6793 55.4418 78.8332 56.1828 78.8285 57.054V64H76.2575V57.4517C76.2575 56.7225 76.0681 56.152 75.6893 55.7401C75.3152 55.3281 74.7968 55.1222 74.1339 55.1222C73.6841 55.1222 73.284 55.2216 72.9336 55.4205C72.5879 55.6146 72.3157 55.8963 72.1168 56.2656C71.9227 56.6349 71.8256 57.0824 71.8256 57.608ZM84.5813 64.2202C83.89 64.2202 83.2674 64.0971 82.7134 63.8509C82.1642 63.5999 81.7286 63.2306 81.4066 62.7429C81.0894 62.2552 80.9308 61.6539 80.9308 60.9389C80.9308 60.3234 81.0444 59.8144 81.2717 59.4119C81.4989 59.0095 81.8091 58.6875 82.2021 58.446C82.5951 58.2045 83.0378 58.0223 83.5302 57.8991C84.0273 57.7713 84.5411 57.679 85.0714 57.6222C85.7106 57.5559 86.229 57.4967 86.6268 57.4446C87.0245 57.3878 87.3133 57.3026 87.4933 57.1889C87.6779 57.0705 87.7702 56.8883 87.7702 56.642V56.5994C87.7702 56.0644 87.6116 55.6501 87.2944 55.3565C86.9772 55.063 86.5202 54.9162 85.9237 54.9162C85.2939 54.9162 84.7944 55.0535 84.4251 55.3281C84.0605 55.6027 83.8143 55.9271 83.6864 56.3011L81.2859 55.9602C81.4753 55.2973 81.7878 54.7434 82.2234 54.2983C82.659 53.8485 83.1916 53.5123 83.8214 53.2898C84.4511 53.0625 85.1471 52.9489 85.9094 52.9489C86.435 52.9489 86.9582 53.0104 87.479 53.1335C87.9999 53.2566 88.4757 53.4602 88.9066 53.7443C89.3375 54.0237 89.6831 54.4048 89.9435 54.8878C90.2087 55.3707 90.3413 55.9744 90.3413 56.6989V64H87.8697V62.5014H87.7844C87.6282 62.8045 87.408 63.0885 87.1239 63.3537C86.8446 63.6141 86.4918 63.8248 86.0657 63.9858C85.6443 64.142 85.1495 64.2202 84.5813 64.2202ZM85.2489 62.331C85.765 62.331 86.2125 62.2292 86.5913 62.0256C86.9701 61.8172 87.2612 61.5426 87.4648 61.2017C87.6732 60.8608 87.7773 60.4891 87.7773 60.0866V58.8011C87.6969 58.8674 87.5595 58.929 87.3654 58.9858C87.176 59.0426 86.9629 59.0923 86.7262 59.1349C86.4895 59.1776 86.2551 59.2154 86.0231 59.2486C85.7911 59.2817 85.5898 59.3101 85.4194 59.3338C85.0359 59.3859 84.6926 59.4711 84.3896 59.5895C84.0865 59.7079 83.8474 59.8736 83.6722 60.0866C83.497 60.295 83.4094 60.5649 83.4094 60.8963C83.4094 61.3698 83.5823 61.7273 83.9279 61.9688C84.2736 62.2102 84.7139 62.331 85.2489 62.331ZM95.4975 57.608V64H92.9265V53.0909H95.3839V54.9446H95.5117C95.7627 54.3338 96.1628 53.8485 96.712 53.4886C97.266 53.1288 97.9502 52.9489 98.7646 52.9489C99.5174 52.9489 100.173 53.1098 100.732 53.4318C101.295 53.7538 101.731 54.2202 102.039 54.831C102.351 55.4418 102.505 56.1828 102.5 57.054V64H99.9293V57.4517C99.9293 56.7225 99.7399 56.152 99.3612 55.7401C98.9871 55.3281 98.4686 55.1222 97.8058 55.1222C97.3559 55.1222 96.9558 55.2216 96.6055 55.4205C96.2598 55.6146 95.9876 55.8963 95.7887 56.2656C95.5946 56.6349 95.4975 57.0824 95.4975 57.608ZM109.873 64.2131C108.783 64.2131 107.848 63.974 107.067 63.4957C106.291 63.0175 105.692 62.357 105.27 61.5142C104.854 60.6667 104.645 59.6913 104.645 58.5881C104.645 57.4801 104.858 56.5024 105.284 55.6548C105.711 54.8026 106.312 54.1397 107.088 53.6662C107.87 53.188 108.793 52.9489 109.858 52.9489C110.744 52.9489 111.527 53.1122 112.209 53.4389C112.896 53.7609 113.443 54.2178 113.85 54.8097C114.257 55.3968 114.489 56.0833 114.546 56.8693H112.088C111.989 56.3437 111.752 55.9058 111.378 55.5554C111.009 55.2003 110.514 55.0227 109.894 55.0227C109.368 55.0227 108.907 55.1648 108.509 55.4489C108.111 55.7282 107.801 56.1307 107.578 56.6562C107.361 57.1818 107.252 57.8116 107.252 58.5455C107.252 59.2888 107.361 59.928 107.578 60.4631C107.796 60.9934 108.102 61.4029 108.495 61.6918C108.892 61.9759 109.359 62.1179 109.894 62.1179C110.273 62.1179 110.611 62.0469 110.909 61.9048C111.212 61.758 111.466 61.5473 111.669 61.2727C111.873 60.9981 112.013 60.6643 112.088 60.2713H114.546C114.484 61.0431 114.257 61.7273 113.864 62.3239C113.471 62.9157 112.936 63.3797 112.259 63.7159C111.582 64.0473 110.786 64.2131 109.873 64.2131ZM121.487 64.2131C120.393 64.2131 119.448 63.9858 118.653 63.5312C117.862 63.072 117.254 62.4233 116.827 61.5852C116.401 60.7424 116.188 59.7505 116.188 58.6094C116.188 57.4872 116.401 56.5024 116.827 55.6548C117.258 54.8026 117.86 54.1397 118.631 53.6662C119.403 53.188 120.31 52.9489 121.352 52.9489C122.024 52.9489 122.658 53.0578 123.255 53.2756C123.856 53.4886 124.387 53.8201 124.846 54.2699C125.31 54.7197 125.674 55.2926 125.94 55.9886C126.205 56.6799 126.337 57.5038 126.337 58.4602V59.2486H117.396V57.5156H123.873C123.868 57.0232 123.762 56.5852 123.553 56.2017C123.345 55.8134 123.054 55.508 122.68 55.2855C122.31 55.063 121.879 54.9517 121.387 54.9517C120.862 54.9517 120.4 55.0795 120.002 55.3352C119.604 55.5862 119.294 55.9176 119.072 56.3295C118.854 56.7367 118.743 57.1842 118.738 57.6719V59.1847C118.738 59.8191 118.854 60.3636 119.086 60.8182C119.318 61.268 119.642 61.6136 120.059 61.8551C120.476 62.0919 120.963 62.2102 121.522 62.2102C121.896 62.2102 122.235 62.1581 122.538 62.054C122.841 61.9451 123.103 61.7865 123.326 61.5781C123.549 61.3698 123.717 61.1117 123.83 60.804L126.231 61.0739C126.079 61.7083 125.79 62.2623 125.364 62.7358C124.943 63.2045 124.403 63.5691 123.745 63.8295C123.087 64.0852 122.334 64.2131 121.487 64.2131ZM54.3026 92H51.4901L56.6108 77.4545H59.8636L64.9915 92H62.179L58.294 80.4375H58.1804L54.3026 92ZM54.3949 86.2969H62.0653V88.4134H54.3949V86.2969ZM66.7937 96.0909V81.0909H69.3221V82.8949H69.4712C69.6038 82.6297 69.7908 82.348 70.0323 82.0497C70.2738 81.7467 70.6005 81.4886 71.0124 81.2756C71.4244 81.0578 71.9499 80.9489 72.5891 80.9489C73.4319 80.9489 74.1919 81.1643 74.869 81.5952C75.5508 82.0213 76.0906 82.6534 76.4883 83.4915C76.8907 84.3248 77.092 85.3475 77.092 86.5597C77.092 87.7576 76.8955 88.7756 76.5025 89.6136C76.1095 90.4517 75.5745 91.0909 74.8974 91.5312C74.2203 91.9716 73.4532 92.1918 72.5962 92.1918C71.9712 92.1918 71.4528 92.0876 71.0408 91.8793C70.6289 91.6709 70.2975 91.42 70.0465 91.1264C69.8003 90.8281 69.6085 90.5464 69.4712 90.2812H69.3647V96.0909H66.7937ZM69.315 86.5455C69.315 87.2509 69.4144 87.8688 69.6133 88.3991C69.8169 88.9295 70.1081 89.3437 70.4869 89.642C70.8704 89.9356 71.3344 90.0824 71.8789 90.0824C72.4471 90.0824 72.9229 89.9309 73.3065 89.6278C73.69 89.3201 73.9788 88.901 74.1729 88.3707C74.3718 87.8357 74.4712 87.2273 74.4712 86.5455C74.4712 85.8684 74.3742 85.267 74.18 84.7415C73.9859 84.2159 73.6971 83.804 73.3136 83.5057C72.93 83.2074 72.4518 83.0582 71.8789 83.0582C71.3297 83.0582 70.8633 83.2027 70.4798 83.4915C70.0962 83.7803 69.805 84.1851 69.6062 84.706C69.4121 85.2268 69.315 85.84 69.315 86.5455ZM79.2937 96.0909V81.0909H81.8221V82.8949H81.9712C82.1038 82.6297 82.2908 82.348 82.5323 82.0497C82.7738 81.7467 83.1005 81.4886 83.5124 81.2756C83.9244 81.0578 84.4499 80.9489 85.0891 80.9489C85.9319 80.9489 86.6919 81.1643 87.369 81.5952C88.0508 82.0213 88.5906 82.6534 88.9883 83.4915C89.3907 84.3248 89.592 85.3475 89.592 86.5597C89.592 87.7576 89.3955 88.7756 89.0025 89.6136C88.6095 90.4517 88.0745 91.0909 87.3974 91.5312C86.7203 91.9716 85.9532 92.1918 85.0962 92.1918C84.4712 92.1918 83.9528 92.0876 83.5408 91.8793C83.1289 91.6709 82.7975 91.42 82.5465 91.1264C82.3003 90.8281 82.1085 90.5464 81.9712 90.2812H81.8647V96.0909H79.2937ZM81.815 86.5455C81.815 87.2509 81.9144 87.8688 82.1133 88.3991C82.3169 88.9295 82.6081 89.3437 82.9869 89.642C83.3704 89.9356 83.8344 90.0824 84.3789 90.0824C84.9471 90.0824 85.4229 89.9309 85.8065 89.6278C86.19 89.3201 86.4788 88.901 86.6729 88.3707C86.8718 87.8357 86.9712 87.2273 86.9712 86.5455C86.9712 85.8684 86.8742 85.267 86.68 84.7415C86.4859 84.2159 86.1971 83.804 85.8136 83.5057C85.43 83.2074 84.9518 83.0582 84.3789 83.0582C83.8297 83.0582 83.3633 83.2027 82.9798 83.4915C82.5962 83.7803 82.305 84.1851 82.1062 84.706C81.9121 85.2268 81.815 85.84 81.815 86.5455ZM94.3647 77.4545V92H91.7937V77.4545H94.3647ZM97.0085 92V81.0909H99.5795V92H97.0085ZM98.3011 79.5426C97.8939 79.5426 97.5436 79.4077 97.25 79.1378C96.9564 78.8632 96.8097 78.5341 96.8097 78.1506C96.8097 77.7623 96.9564 77.4332 97.25 77.1634C97.5436 76.8887 97.8939 76.7514 98.3011 76.7514C98.7131 76.7514 99.0634 76.8887 99.3523 77.1634C99.6458 77.4332 99.7926 77.7623 99.7926 78.1506C99.7926 78.5341 99.6458 78.8632 99.3523 79.1378C99.0634 79.4077 98.7131 79.5426 98.3011 79.5426ZM106.982 92.2131C105.893 92.2131 104.958 91.974 104.176 91.4957C103.4 91.0175 102.801 90.357 102.38 89.5142C101.963 88.6667 101.755 87.6913 101.755 86.5881C101.755 85.4801 101.968 84.5024 102.394 83.6548C102.82 82.8026 103.421 82.1397 104.198 81.6662C104.979 81.188 105.902 80.9489 106.968 80.9489C107.853 80.9489 108.637 81.1122 109.319 81.4389C110.005 81.7609 110.552 82.2178 110.959 82.8097C111.366 83.3968 111.598 84.0833 111.655 84.8693H109.198C109.098 84.3437 108.862 83.9058 108.488 83.5554C108.118 83.2003 107.623 83.0227 107.003 83.0227C106.478 83.0227 106.016 83.1648 105.618 83.4489C105.221 83.7282 104.91 84.1307 104.688 84.6562C104.47 85.1818 104.361 85.8116 104.361 86.5455C104.361 87.2888 104.47 87.928 104.688 88.4631C104.906 88.9934 105.211 89.4029 105.604 89.6918C106.002 89.9759 106.468 90.1179 107.003 90.1179C107.382 90.1179 107.721 90.0469 108.019 89.9048C108.322 89.758 108.575 89.5473 108.779 89.2727C108.982 88.9981 109.122 88.6643 109.198 88.2713H111.655C111.594 89.0431 111.366 89.7273 110.973 90.3239C110.58 90.9157 110.045 91.3797 109.368 91.7159C108.691 92.0473 107.896 92.2131 106.982 92.2131ZM116.906 92.2202C116.214 92.2202 115.592 92.0971 115.038 91.8509C114.488 91.5999 114.053 91.2306 113.731 90.7429C113.414 90.2552 113.255 89.6539 113.255 88.9389C113.255 88.3234 113.369 87.8144 113.596 87.4119C113.823 87.0095 114.133 86.6875 114.526 86.446C114.919 86.2045 115.362 86.0223 115.854 85.8991C116.352 85.7713 116.865 85.679 117.396 85.6222C118.035 85.5559 118.553 85.4967 118.951 85.4446C119.349 85.3878 119.638 85.3026 119.817 85.1889C120.002 85.0705 120.094 84.8883 120.094 84.642V84.5994C120.094 84.0644 119.936 83.6501 119.619 83.3565C119.301 83.063 118.844 82.9162 118.248 82.9162C117.618 82.9162 117.119 83.0535 116.749 83.3281C116.385 83.6027 116.138 83.9271 116.011 84.3011L113.61 83.9602C113.799 83.2973 114.112 82.7434 114.548 82.2983C114.983 81.8485 115.516 81.5123 116.146 81.2898C116.775 81.0625 117.471 80.9489 118.234 80.9489C118.759 80.9489 119.282 81.0104 119.803 81.1335C120.324 81.2566 120.8 81.4602 121.231 81.7443C121.662 82.0237 122.007 82.4048 122.268 82.8878C122.533 83.3707 122.665 83.9744 122.665 84.6989V92H120.194V90.5014H120.109C119.952 90.8045 119.732 91.0885 119.448 91.3537C119.169 91.6141 118.816 91.8248 118.39 91.9858C117.969 92.142 117.474 92.2202 116.906 92.2202ZM117.573 90.331C118.089 90.331 118.537 90.2292 118.915 90.0256C119.294 89.8172 119.585 89.5426 119.789 89.2017C119.997 88.8608 120.102 88.4891 120.102 88.0866V86.8011C120.021 86.8674 119.884 86.929 119.69 86.9858C119.5 87.0426 119.287 87.0923 119.05 87.1349C118.814 87.1776 118.579 87.2154 118.347 87.2486C118.115 87.2817 117.914 87.3101 117.744 87.3338C117.36 87.3859 117.017 87.4711 116.714 87.5895C116.411 87.7079 116.172 87.8736 115.996 88.0866C115.821 88.295 115.734 88.5649 115.734 88.8963C115.734 89.3698 115.906 89.7273 116.252 89.9688C116.598 90.2102 117.038 90.331 117.573 90.331ZM130.698 81.0909V83.0795H124.427V81.0909H130.698ZM125.975 78.4773H128.546V88.7188C128.546 89.0644 128.598 89.3295 128.702 89.5142C128.811 89.6941 128.953 89.8172 129.129 89.8835C129.304 89.9498 129.498 89.983 129.711 89.983C129.872 89.983 130.019 89.9711 130.151 89.9474C130.289 89.9238 130.393 89.9025 130.464 89.8835L130.897 91.8935C130.76 91.9408 130.563 91.9929 130.308 92.0497C130.057 92.1065 129.749 92.1397 129.384 92.1491C128.74 92.1681 128.16 92.071 127.644 91.858C127.128 91.6402 126.719 91.304 126.415 90.8494C126.117 90.3949 125.97 89.8267 125.975 89.1449V78.4773ZM132.848 92V81.0909H135.419V92H132.848ZM134.141 79.5426C133.734 79.5426 133.383 79.4077 133.09 79.1378C132.796 78.8632 132.65 78.5341 132.65 78.1506C132.65 77.7623 132.796 77.4332 133.09 77.1634C133.383 76.8887 133.734 76.7514 134.141 76.7514C134.553 76.7514 134.903 76.8887 135.192 77.1634C135.486 77.4332 135.632 77.7623 135.632 78.1506C135.632 78.5341 135.486 78.8632 135.192 79.1378C134.903 79.4077 134.553 79.5426 134.141 79.5426ZM142.822 92.2131C141.756 92.2131 140.833 91.9787 140.052 91.5099C139.271 91.0412 138.665 90.3854 138.234 89.5426C137.808 88.6998 137.594 87.715 137.594 86.5881C137.594 85.4612 137.808 84.474 138.234 83.6264C138.665 82.7789 139.271 82.1207 140.052 81.652C140.833 81.1832 141.756 80.9489 142.822 80.9489C143.887 80.9489 144.81 81.1832 145.592 81.652C146.373 82.1207 146.977 82.7789 147.403 83.6264C147.834 84.474 148.049 85.4612 148.049 86.5881C148.049 87.715 147.834 88.6998 147.403 89.5426C146.977 90.3854 146.373 91.0412 145.592 91.5099C144.81 91.9787 143.887 92.2131 142.822 92.2131ZM142.836 90.1534C143.414 90.1534 143.897 89.9948 144.285 89.6776C144.673 89.3556 144.962 88.9247 145.151 88.3849C145.345 87.8452 145.442 87.2438 145.442 86.581C145.442 85.9134 145.345 85.3097 145.151 84.7699C144.962 84.2254 144.673 83.7921 144.285 83.4702C143.897 83.1482 143.414 82.9872 142.836 82.9872C142.244 82.9872 141.752 83.1482 141.359 83.4702C140.97 83.7921 140.679 84.2254 140.485 84.7699C140.296 85.3097 140.201 85.9134 140.201 86.581C140.201 87.2438 140.296 87.8452 140.485 88.3849C140.679 88.9247 140.97 89.3556 141.359 89.6776C141.752 89.9948 142.244 90.1534 142.836 90.1534ZM152.802 85.608V92H150.231V81.0909H152.689V82.9446H152.816C153.067 82.3338 153.467 81.8485 154.017 81.4886C154.571 81.1288 155.255 80.9489 156.069 80.9489C156.822 80.9489 157.478 81.1098 158.037 81.4318C158.6 81.7538 159.036 82.2202 159.343 82.831C159.656 83.4418 159.81 84.1828 159.805 85.054V92H157.234V85.4517C157.234 84.7225 157.045 84.152 156.666 83.7401C156.292 83.3281 155.773 83.1222 155.11 83.1222C154.661 83.1222 154.261 83.2216 153.91 83.4205C153.565 83.6146 153.292 83.8963 153.093 84.2656C152.899 84.6349 152.802 85.0824 152.802 85.608ZM54.3026 120H51.4901L56.6108 105.455H59.8636L64.9915 120H62.179L58.294 108.438H58.1804L54.3026 120ZM54.3949 114.297H62.0653V116.413H54.3949V114.297ZM66.7937 124.091V109.091H69.3221V110.895H69.4712C69.6038 110.63 69.7908 110.348 70.0323 110.05C70.2738 109.747 70.6005 109.489 71.0124 109.276C71.4244 109.058 71.9499 108.949 72.5891 108.949C73.4319 108.949 74.1919 109.164 74.869 109.595C75.5508 110.021 76.0906 110.653 76.4883 111.491C76.8907 112.325 77.092 113.348 77.092 114.56C77.092 115.758 76.8955 116.776 76.5025 117.614C76.1095 118.452 75.5745 119.091 74.8974 119.531C74.2203 119.972 73.4532 120.192 72.5962 120.192C71.9712 120.192 71.4528 120.088 71.0408 119.879C70.6289 119.671 70.2975 119.42 70.0465 119.126C69.8003 118.828 69.6085 118.546 69.4712 118.281H69.3647V124.091H66.7937ZM69.315 114.545C69.315 115.251 69.4144 115.869 69.6133 116.399C69.8169 116.929 70.1081 117.344 70.4869 117.642C70.8704 117.936 71.3344 118.082 71.8789 118.082C72.4471 118.082 72.9229 117.931 73.3065 117.628C73.69 117.32 73.9788 116.901 74.1729 116.371C74.3718 115.836 74.4712 115.227 74.4712 114.545C74.4712 113.868 74.3742 113.267 74.18 112.741C73.9859 112.216 73.6971 111.804 73.3136 111.506C72.93 111.207 72.4518 111.058 71.8789 111.058C71.3297 111.058 70.8633 111.203 70.4798 111.491C70.0962 111.78 69.805 112.185 69.6062 112.706C69.4121 113.227 69.315 113.84 69.315 114.545ZM79.2937 124.091V109.091H81.8221V110.895H81.9712C82.1038 110.63 82.2908 110.348 82.5323 110.05C82.7738 109.747 83.1005 109.489 83.5124 109.276C83.9244 109.058 84.4499 108.949 85.0891 108.949C85.9319 108.949 86.6919 109.164 87.369 109.595C88.0508 110.021 88.5906 110.653 88.9883 111.491C89.3907 112.325 89.592 113.348 89.592 114.56C89.592 115.758 89.3955 116.776 89.0025 117.614C88.6095 118.452 88.0745 119.091 87.3974 119.531C86.7203 119.972 85.9532 120.192 85.0962 120.192C84.4712 120.192 83.9528 120.088 83.5408 119.879C83.1289 119.671 82.7975 119.42 82.5465 119.126C82.3003 118.828 82.1085 118.546 81.9712 118.281H81.8647V124.091H79.2937ZM81.815 114.545C81.815 115.251 81.9144 115.869 82.1133 116.399C82.3169 116.929 82.6081 117.344 82.9869 117.642C83.3704 117.936 83.8344 118.082 84.3789 118.082C84.9471 118.082 85.4229 117.931 85.8065 117.628C86.19 117.32 86.4788 116.901 86.6729 116.371C86.8718 115.836 86.9712 115.227 86.9712 114.545C86.9712 113.868 86.8742 113.267 86.68 112.741C86.4859 112.216 86.1971 111.804 85.8136 111.506C85.43 111.207 84.9518 111.058 84.3789 111.058C83.8297 111.058 83.3633 111.203 82.9798 111.491C82.5962 111.78 82.305 112.185 82.1062 112.706C81.9121 113.227 81.815 113.84 81.815 114.545ZM91.7937 120V109.091H94.2866V110.909H94.4002C94.5991 110.279 94.94 109.794 95.4229 109.453C95.9106 109.107 96.467 108.935 97.092 108.935C97.234 108.935 97.3926 108.942 97.5678 108.956C97.7478 108.965 97.8969 108.982 98.0153 109.006V111.371C97.9064 111.333 97.7335 111.3 97.4968 111.271C97.2648 111.238 97.0399 111.222 96.8221 111.222C96.3533 111.222 95.9319 111.323 95.5579 111.527C95.1886 111.726 94.8974 112.003 94.6843 112.358C94.4712 112.713 94.3647 113.123 94.3647 113.587V120H91.7937ZM104.033 120.213C102.967 120.213 102.044 119.979 101.263 119.51C100.482 119.041 99.8755 118.385 99.4446 117.543C99.0185 116.7 98.8054 115.715 98.8054 114.588C98.8054 113.461 99.0185 112.474 99.4446 111.626C99.8755 110.779 100.482 110.121 101.263 109.652C102.044 109.183 102.967 108.949 104.033 108.949C105.098 108.949 106.021 109.183 106.803 109.652C107.584 110.121 108.188 110.779 108.614 111.626C109.045 112.474 109.26 113.461 109.26 114.588C109.26 115.715 109.045 116.7 108.614 117.543C108.188 118.385 107.584 119.041 106.803 119.51C106.021 119.979 105.098 120.213 104.033 120.213ZM104.047 118.153C104.625 118.153 105.107 117.995 105.496 117.678C105.884 117.356 106.173 116.925 106.362 116.385C106.556 115.845 106.653 115.244 106.653 114.581C106.653 113.913 106.556 113.31 106.362 112.77C106.173 112.225 105.884 111.792 105.496 111.47C105.107 111.148 104.625 110.987 104.047 110.987C103.455 110.987 102.963 111.148 102.57 111.47C102.181 111.792 101.89 112.225 101.696 112.77C101.507 113.31 101.412 113.913 101.412 114.581C101.412 115.244 101.507 115.845 101.696 116.385C101.89 116.925 102.181 117.356 102.57 117.678C102.963 117.995 103.455 118.153 104.047 118.153ZM120.815 109.091L116.93 120H114.089L110.205 109.091H112.946L115.453 117.195H115.567L118.081 109.091H120.815ZM127.053 120.213C125.959 120.213 125.015 119.986 124.219 119.531C123.428 119.072 122.82 118.423 122.394 117.585C121.968 116.742 121.755 115.75 121.755 114.609C121.755 113.487 121.968 112.502 122.394 111.655C122.825 110.803 123.426 110.14 124.198 109.666C124.97 109.188 125.876 108.949 126.918 108.949C127.59 108.949 128.225 109.058 128.821 109.276C129.423 109.489 129.953 109.82 130.412 110.27C130.876 110.72 131.241 111.293 131.506 111.989C131.771 112.68 131.904 113.504 131.904 114.46V115.249H122.962V113.516H129.439C129.435 113.023 129.328 112.585 129.12 112.202C128.911 111.813 128.62 111.508 128.246 111.286C127.877 111.063 127.446 110.952 126.953 110.952C126.428 110.952 125.966 111.08 125.569 111.335C125.171 111.586 124.861 111.918 124.638 112.33C124.42 112.737 124.309 113.184 124.304 113.672V115.185C124.304 115.819 124.42 116.364 124.652 116.818C124.884 117.268 125.209 117.614 125.625 117.855C126.042 118.092 126.53 118.21 127.088 118.21C127.462 118.21 127.801 118.158 128.104 118.054C128.407 117.945 128.67 117.786 128.892 117.578C129.115 117.37 129.283 117.112 129.397 116.804L131.797 117.074C131.646 117.708 131.357 118.262 130.931 118.736C130.509 119.205 129.97 119.569 129.311 119.83C128.653 120.085 127.9 120.213 127.053 120.213ZM138.127 120.192C137.27 120.192 136.503 119.972 135.826 119.531C135.149 119.091 134.614 118.452 134.221 117.614C133.828 116.776 133.631 115.758 133.631 114.56C133.631 113.348 133.83 112.325 134.228 111.491C134.63 110.653 135.173 110.021 135.854 109.595C136.536 109.164 137.296 108.949 138.134 108.949C138.773 108.949 139.299 109.058 139.711 109.276C140.123 109.489 140.45 109.747 140.691 110.05C140.933 110.348 141.12 110.63 141.252 110.895H141.359V105.455H143.937V120H141.408V118.281H141.252C141.12 118.546 140.928 118.828 140.677 119.126C140.426 119.42 140.094 119.671 139.683 119.879C139.271 120.088 138.752 120.192 138.127 120.192ZM138.844 118.082C139.389 118.082 139.853 117.936 140.237 117.642C140.62 117.344 140.911 116.929 141.11 116.399C141.309 115.869 141.408 115.251 141.408 114.545C141.408 113.84 141.309 113.227 141.11 112.706C140.916 112.185 140.627 111.78 140.244 111.491C139.865 111.203 139.398 111.058 138.844 111.058C138.272 111.058 137.793 111.207 137.41 111.506C137.026 111.804 136.737 112.216 136.543 112.741C136.349 113.267 136.252 113.868 136.252 114.545C136.252 115.227 136.349 115.836 136.543 116.371C136.742 116.901 137.033 117.32 137.417 117.628C137.805 117.931 138.281 118.082 138.844 118.082Z" fill="#21506A"/>
<rect x="51" y="135" width="119" height="11" rx="5.5" fill="#DDE8EF"/>
<rect x="51" y="154" width="87" height="11" rx="5.5" fill="#DDE8EF"/>
</g>
<rect x="29.5" y="22.5" width="184" height="163" rx="11.5" stroke="#F1F5F8"/>
</g>
<defs>
<filter id="filter0_d_8340_4075" x="0" y="0" width="243" height="222" filterUnits="userSpaceOnUse" color-interpolation-filters="sRGB">
<feFlood flood-opacity="0" result="BackgroundImageFix"/>
<feColorMatrix in="SourceAlpha" type="matrix" values="0 0 0 0 0 0 0 0 0 0 0 0 0 0 0 0 0 0 127 0" result="hardAlpha"/>
<feOffset dy="7"/>
<feGaussianBlur stdDeviation="14.5"/>
<feComposite in2="hardAlpha" operator="out"/>
<feColorMatrix type="matrix" values="0 0 0 0 0 0 0 0 0 0 0 0 0 0 0 0 0 0 0.2 0"/>
<feBlend mode="normal" in2="BackgroundImageFix" result="effect1_dropShadow_8340_4075"/>
<feBlend mode="normal" in="SourceGraphic" in2="effect1_dropShadow_8340_4075" result="shape"/>
</filter>
<clipPath id="clip0_8340_4075">
<rect x="29" y="22" width="185" height="164" rx="12" fill="white"/>
</clipPath>
</defs>
</svg>
