<svg width="263" height="224" viewBox="0 0 263 224" fill="none" xmlns="http://www.w3.org/2000/svg">
<path d="M0 0C50.6017 12.4136 62.8128 77.6123 99.9463 115.008C137.223 152.547 203.542 164.83 213.808 216.716C214.304 219.224 214.711 221.736 215.036 224.249H0V0Z" fill="#FAB42E"/>
<g filter="url(#filter0_d_8340_4074)">
<g clip-path="url(#clip0_8340_4074)">
<rect x="47" y="74.749" width="183" height="99.4074" rx="12" fill="white"/>
<rect x="60.5557" y="90.5635" width="40.6667" height="40.6667" rx="20.3333" fill="#FAB42E"/>
<path d="M79.3018 100.485C82.0593 99.8064 85.3698 100.805 86.6777 104.141C86.8343 104.54 86.6374 104.991 86.2383 105.148C85.839 105.304 85.3881 105.108 85.2314 104.708C84.2707 102.258 81.855 101.457 79.6729 101.994C77.4998 102.528 75.7762 104.335 76.1475 106.995L76.1484 106.997C76.2983 108.103 76.8172 109.042 77.4141 109.944C77.5297 110.119 77.6606 110.31 77.792 110.501C77.9591 110.745 78.1267 110.992 78.2686 111.211H83.7812C84.2102 111.211 84.5586 111.559 84.5586 111.988C84.5585 112.417 84.2101 112.764 83.7812 112.764H79.0176C79.7109 115.262 78.8451 117.413 77.8613 118.89C77.6064 119.273 77.3407 119.616 77.0859 119.914H81.8252C81.8496 119.915 81.8741 119.915 81.8984 119.917C82.9552 120.018 84.0729 119.933 84.9873 119.576C85.8806 119.226 86.555 118.631 86.8594 117.681C86.9902 117.273 87.4275 117.047 87.8359 117.178C88.2443 117.309 88.4696 117.746 88.3389 118.155C87.8629 119.641 86.784 120.54 85.5527 121.022C84.355 121.49 82.9919 121.577 81.7891 121.467H75.1865C74.8532 121.467 74.5567 121.255 74.4502 120.939C74.3439 120.623 74.4511 120.274 74.7158 120.073L74.7168 120.072L74.7217 120.069L74.75 120.046C74.7763 120.025 74.8166 119.991 74.8691 119.947C74.9745 119.857 75.1277 119.722 75.3086 119.544C75.6719 119.188 76.1405 118.671 76.5684 118.029C77.4275 116.739 78.0731 115.021 77.4922 113.075C77.4626 112.977 77.4186 112.875 77.3672 112.764H74.1787C73.7498 112.764 73.4014 112.417 73.4014 111.988C73.4014 111.559 73.7498 111.211 74.1787 111.211H76.3965C76.3093 111.084 76.217 110.949 76.1191 110.801C75.4889 109.849 74.8079 108.67 74.6094 107.207C74.1052 103.59 76.5354 101.165 79.3018 100.485Z" fill="white"/>
<path d="M117.512 123.78C117.512 123.554 117.579 123.358 117.715 123.192C117.858 123.027 118.065 122.944 118.336 122.944H119.692V120.154C119.692 119.446 119.793 118.779 119.997 118.154C120.208 117.522 120.524 116.972 120.946 116.505C121.367 116.03 121.895 115.658 122.527 115.387C123.16 115.108 123.901 114.969 124.752 114.969C125.347 114.969 125.878 115.044 126.345 115.195C126.812 115.345 127.226 115.552 127.588 115.816C127.949 116.072 128.262 116.377 128.525 116.731C128.797 117.077 129.03 117.454 129.226 117.86L128.254 118.493C128.028 118.606 127.81 118.655 127.599 118.64C127.396 118.625 127.208 118.516 127.034 118.312C126.891 118.132 126.744 117.966 126.594 117.815C126.451 117.657 126.293 117.522 126.119 117.409C125.946 117.296 125.747 117.209 125.521 117.149C125.302 117.081 125.046 117.047 124.752 117.047C123.894 117.047 123.25 117.326 122.821 117.883C122.392 118.433 122.177 119.186 122.177 120.142V122.944H126.967V123.927C126.967 124.085 126.899 124.232 126.763 124.367C126.635 124.503 126.47 124.57 126.266 124.57H122.177V127.01C122.177 127.53 122.075 127.989 121.872 128.389C121.676 128.788 121.405 129.153 121.059 129.484C121.563 129.379 122.06 129.326 122.55 129.326H129.655V130.354C129.655 130.482 129.629 130.61 129.576 130.738C129.531 130.859 129.459 130.972 129.361 131.077C129.271 131.175 129.162 131.258 129.034 131.326C128.906 131.386 128.763 131.416 128.605 131.416H117.749V129.868C118.005 129.801 118.25 129.707 118.483 129.586C118.716 129.466 118.924 129.319 119.104 129.145C119.285 128.965 119.428 128.754 119.534 128.513C119.639 128.264 119.692 127.978 119.692 127.654V124.57H117.512V123.78ZM141.258 129.123C141.522 129.123 141.729 129.202 141.879 129.36C142.03 129.511 142.105 129.707 142.105 129.947V131.416H131.103V130.591C131.103 130.426 131.137 130.252 131.204 130.072C131.272 129.891 131.381 129.725 131.532 129.575L136.593 124.503C137.022 124.073 137.402 123.663 137.734 123.271C138.073 122.88 138.359 122.488 138.592 122.097C138.833 121.705 139.014 121.31 139.134 120.91C139.262 120.504 139.326 120.078 139.326 119.634C139.326 119.205 139.259 118.828 139.123 118.504C138.995 118.173 138.814 117.902 138.581 117.691C138.355 117.473 138.08 117.311 137.756 117.205C137.44 117.092 137.09 117.036 136.706 117.036C136.337 117.036 135.994 117.089 135.678 117.194C135.369 117.299 135.09 117.446 134.842 117.635C134.601 117.823 134.398 118.049 134.232 118.312C134.074 118.568 133.957 118.851 133.882 119.16C133.769 119.468 133.622 119.675 133.441 119.781C133.268 119.886 133.012 119.909 132.673 119.849L131.396 119.623C131.509 118.855 131.72 118.181 132.029 117.601C132.345 117.021 132.741 116.539 133.215 116.155C133.69 115.763 134.232 115.469 134.842 115.274C135.459 115.07 136.126 114.969 136.841 114.969C137.564 114.969 138.227 115.078 138.829 115.296C139.439 115.507 139.963 115.812 140.4 116.211C140.844 116.603 141.19 117.081 141.439 117.646C141.687 118.211 141.812 118.847 141.812 119.555C141.812 120.157 141.721 120.715 141.541 121.227C141.367 121.739 141.13 122.228 140.829 122.695C140.528 123.162 140.174 123.618 139.767 124.062C139.368 124.499 138.946 124.943 138.502 125.395L134.571 129.417C134.895 129.326 135.218 129.255 135.542 129.202C135.874 129.149 136.186 129.123 136.48 129.123H141.258ZM151.393 125.406V119.465C151.393 118.99 151.427 118.47 151.494 117.906L146.027 125.406H151.393ZM155.753 125.406V126.807C155.753 126.943 155.708 127.059 155.617 127.157C155.535 127.255 155.407 127.304 155.233 127.304H153.505V131.416H151.393V127.304H144.355C144.182 127.304 144.031 127.255 143.903 127.157C143.783 127.052 143.704 126.924 143.666 126.773L143.417 125.531L151.223 115.138H153.505V125.406H155.753ZM168.633 115.149V116.222C168.633 116.539 168.599 116.795 168.531 116.991C168.463 117.186 168.395 117.352 168.328 117.488L161.9 130.569C161.787 130.81 161.625 131.013 161.414 131.179C161.211 131.337 160.94 131.416 160.601 131.416H158.85L165.402 118.55C165.522 118.316 165.643 118.105 165.763 117.917C165.884 117.729 166.019 117.548 166.17 117.375H158.048C157.897 117.375 157.766 117.318 157.653 117.205C157.54 117.085 157.483 116.949 157.483 116.799V115.149H168.633ZM170.566 130.015C170.566 129.797 170.604 129.594 170.679 129.405C170.762 129.209 170.871 129.04 171.007 128.897C171.15 128.754 171.315 128.641 171.504 128.558C171.699 128.475 171.907 128.434 172.125 128.434C172.343 128.434 172.547 128.475 172.735 128.558C172.931 128.641 173.1 128.754 173.243 128.897C173.386 129.04 173.499 129.209 173.582 129.405C173.665 129.594 173.706 129.797 173.706 130.015C173.706 130.241 173.665 130.448 173.582 130.637C173.499 130.825 173.386 130.991 173.243 131.134C173.1 131.277 172.931 131.386 172.735 131.461C172.547 131.544 172.343 131.585 172.125 131.585C171.907 131.585 171.699 131.544 171.504 131.461C171.315 131.386 171.15 131.277 171.007 131.134C170.871 130.991 170.762 130.825 170.679 130.637C170.604 130.448 170.566 130.241 170.566 130.015ZM181.328 129.586C181.817 129.586 182.265 129.507 182.672 129.349C183.078 129.183 183.425 128.957 183.711 128.671C184.005 128.385 184.231 128.046 184.389 127.654C184.547 127.263 184.626 126.837 184.626 126.378C184.626 125.881 184.547 125.437 184.389 125.045C184.238 124.646 184.02 124.311 183.734 124.04C183.455 123.768 183.116 123.561 182.717 123.418C182.325 123.268 181.892 123.192 181.418 123.192C180.928 123.192 180.484 123.275 180.085 123.441C179.693 123.607 179.358 123.832 179.08 124.119C178.801 124.405 178.586 124.74 178.436 125.124C178.285 125.508 178.21 125.915 178.21 126.344C178.21 126.826 178.278 127.267 178.413 127.666C178.549 128.065 178.748 128.407 179.012 128.694C179.275 128.972 179.599 129.191 179.983 129.349C180.375 129.507 180.823 129.586 181.328 129.586ZM180.435 121.136C180.315 121.287 180.198 121.43 180.085 121.566C179.979 121.701 179.874 121.837 179.769 121.972C180.115 121.777 180.495 121.622 180.91 121.509C181.324 121.396 181.768 121.34 182.243 121.34C182.875 121.34 183.481 121.445 184.061 121.656C184.641 121.859 185.149 122.168 185.586 122.582C186.031 122.989 186.384 123.497 186.648 124.107C186.912 124.71 187.043 125.406 187.043 126.197C187.043 126.95 186.904 127.654 186.625 128.31C186.354 128.965 185.97 129.537 185.473 130.027C184.976 130.509 184.378 130.893 183.677 131.179C182.984 131.457 182.216 131.597 181.373 131.597C180.529 131.597 179.769 131.461 179.091 131.19C178.413 130.919 177.833 130.539 177.351 130.049C176.877 129.552 176.512 128.957 176.255 128.264C175.999 127.572 175.871 126.8 175.871 125.949C175.871 125.211 176.03 124.439 176.346 123.633C176.662 122.827 177.152 121.98 177.814 121.091L181.813 115.725C181.934 115.567 182.107 115.432 182.333 115.319C182.566 115.206 182.826 115.149 183.112 115.149H185.259L180.435 121.136ZM200.386 123.283C200.386 124.706 200.232 125.937 199.923 126.977C199.622 128.016 199.204 128.878 198.669 129.563C198.134 130.249 197.506 130.757 196.783 131.088C196.06 131.42 195.28 131.585 194.444 131.585C193.608 131.585 192.829 131.42 192.106 131.088C191.383 130.757 190.754 130.249 190.219 129.563C189.692 128.878 189.278 128.016 188.977 126.977C188.676 125.937 188.525 124.706 188.525 123.283C188.525 121.859 188.676 120.628 188.977 119.589C189.278 118.542 189.692 117.68 190.219 117.002C190.754 116.317 191.383 115.808 192.106 115.477C192.829 115.138 193.608 114.969 194.444 114.969C195.28 114.969 196.06 115.138 196.783 115.477C197.506 115.808 198.134 116.317 198.669 117.002C199.204 117.68 199.622 118.542 199.923 119.589C200.232 120.628 200.386 121.859 200.386 123.283ZM197.878 123.283C197.878 122.078 197.78 121.076 197.585 120.278C197.396 119.472 197.144 118.828 196.828 118.346C196.511 117.864 196.146 117.522 195.732 117.318C195.318 117.115 194.889 117.013 194.444 117.013C193.992 117.013 193.559 117.115 193.145 117.318C192.739 117.522 192.377 117.864 192.061 118.346C191.744 118.828 191.492 119.472 191.304 120.278C191.116 121.076 191.021 122.078 191.021 123.283C191.021 124.488 191.116 125.493 191.304 126.299C191.492 127.097 191.744 127.737 192.061 128.219C192.377 128.701 192.739 129.044 193.145 129.247C193.559 129.45 193.992 129.552 194.444 129.552C194.889 129.552 195.318 129.45 195.732 129.247C196.146 129.044 196.511 128.701 196.828 128.219C197.144 127.737 197.396 127.097 197.585 126.299C197.78 125.493 197.878 124.488 197.878 123.283Z" fill="#272930"/>
<path d="M125.062 102.428C125.134 102.428 125.2 102.458 125.259 102.516L125.774 103.079C125.376 103.54 124.893 103.899 124.323 104.157C123.758 104.414 123.076 104.543 122.276 104.543C121.576 104.543 120.941 104.423 120.372 104.184C119.802 103.94 119.317 103.601 118.915 103.167C118.512 102.729 118.201 102.205 117.979 101.595C117.758 100.985 117.647 100.314 117.647 99.5817C117.647 98.8497 117.765 98.1787 118 97.5687C118.239 96.9587 118.573 96.4345 119.003 95.9962C119.432 95.5579 119.945 95.2191 120.541 94.9796C121.142 94.7356 121.804 94.6136 122.527 94.6136C123.241 94.6136 123.856 94.7243 124.371 94.9457C124.89 95.1671 125.351 95.4676 125.753 95.8471L125.326 96.4503C125.295 96.4955 125.259 96.5339 125.218 96.5656C125.177 96.5927 125.118 96.6062 125.042 96.6062C124.983 96.6062 124.92 96.5859 124.852 96.5452C124.789 96.5001 124.712 96.4458 124.621 96.3826C124.531 96.3193 124.425 96.2515 124.303 96.1792C124.181 96.1069 124.036 96.0392 123.869 95.9759C123.702 95.9126 123.508 95.8607 123.286 95.82C123.065 95.7748 122.81 95.7522 122.52 95.7522C122.001 95.7522 121.524 95.8426 121.09 96.0233C120.661 96.1996 120.29 96.4526 119.979 96.7825C119.667 97.1123 119.423 97.5145 119.247 97.9889C119.075 98.4633 118.989 98.9943 118.989 99.5817C118.989 100.187 119.075 100.727 119.247 101.202C119.423 101.676 119.66 102.078 119.958 102.408C120.261 102.733 120.618 102.982 121.029 103.154C121.44 103.325 121.883 103.411 122.358 103.411C122.647 103.411 122.907 103.395 123.137 103.364C123.368 103.328 123.58 103.273 123.774 103.201C123.973 103.129 124.156 103.038 124.323 102.93C124.495 102.817 124.667 102.684 124.838 102.53C124.915 102.462 124.99 102.428 125.062 102.428ZM132.349 104.435H131.814C131.696 104.435 131.601 104.416 131.529 104.38C131.457 104.344 131.409 104.267 131.387 104.15L131.251 103.513C131.07 103.675 130.894 103.822 130.722 103.953C130.551 104.08 130.37 104.188 130.18 104.279C129.99 104.365 129.787 104.43 129.57 104.475C129.358 104.52 129.121 104.543 128.859 104.543C128.592 104.543 128.341 104.507 128.106 104.435C127.876 104.358 127.675 104.245 127.503 104.096C127.331 103.947 127.193 103.759 127.09 103.533C126.99 103.303 126.94 103.032 126.94 102.72C126.94 102.449 127.015 102.189 127.164 101.94C127.313 101.687 127.553 101.464 127.883 101.269C128.217 101.075 128.653 100.917 129.191 100.795C129.728 100.668 130.386 100.596 131.163 100.578V100.043C131.163 99.5094 131.048 99.1072 130.817 98.8361C130.591 98.5605 130.255 98.4227 129.807 98.4227C129.514 98.4227 129.265 98.4611 129.062 98.5379C128.863 98.6102 128.689 98.6938 128.54 98.7887C128.395 98.8791 128.269 98.9626 128.16 99.0395C128.056 99.1118 127.953 99.1479 127.849 99.1479C127.767 99.1479 127.695 99.1276 127.632 99.0869C127.573 99.0417 127.526 98.9875 127.489 98.9242L127.273 98.5379C127.652 98.1719 128.061 97.8985 128.499 97.7178C128.938 97.5371 129.423 97.4467 129.957 97.4467C130.341 97.4467 130.682 97.5099 130.98 97.6365C131.278 97.763 131.529 97.9392 131.732 98.1651C131.936 98.3911 132.089 98.6644 132.193 98.9852C132.297 99.3061 132.349 99.6585 132.349 100.043V104.435ZM129.218 103.696C129.43 103.696 129.624 103.675 129.801 103.635C129.977 103.59 130.142 103.529 130.295 103.452C130.454 103.37 130.603 103.273 130.743 103.16C130.887 103.047 131.027 102.919 131.163 102.774V101.344C130.607 101.362 130.135 101.407 129.746 101.479C129.358 101.547 129.042 101.638 128.798 101.751C128.554 101.864 128.375 101.997 128.262 102.15C128.154 102.304 128.099 102.476 128.099 102.666C128.099 102.846 128.129 103.002 128.188 103.133C128.246 103.264 128.325 103.373 128.425 103.459C128.524 103.54 128.642 103.601 128.777 103.642C128.913 103.678 129.06 103.696 129.218 103.696ZM138.108 98.7006C138.054 98.8 137.97 98.8497 137.857 98.8497C137.789 98.8497 137.713 98.8248 137.627 98.7751C137.541 98.7254 137.435 98.6712 137.308 98.6125C137.186 98.5492 137.039 98.4927 136.868 98.443C136.696 98.3888 136.493 98.3617 136.258 98.3617C136.054 98.3617 135.871 98.3888 135.709 98.443C135.546 98.4927 135.406 98.5628 135.288 98.6531C135.175 98.7435 135.087 98.8497 135.024 98.9717C134.965 99.0892 134.936 99.2179 134.936 99.358C134.936 99.5342 134.986 99.6811 135.085 99.7986C135.189 99.9161 135.325 100.018 135.492 100.104C135.659 100.189 135.849 100.266 136.061 100.334C136.273 100.397 136.49 100.467 136.712 100.544C136.938 100.616 137.157 100.698 137.369 100.788C137.582 100.878 137.771 100.991 137.939 101.127C138.106 101.263 138.239 101.43 138.338 101.629C138.442 101.823 138.494 102.058 138.494 102.333C138.494 102.65 138.438 102.943 138.325 103.215C138.212 103.481 138.045 103.714 137.823 103.913C137.602 104.107 137.331 104.261 137.01 104.374C136.689 104.487 136.319 104.543 135.898 104.543C135.419 104.543 134.986 104.466 134.597 104.313C134.208 104.154 133.879 103.953 133.608 103.709L133.892 103.248C133.928 103.19 133.971 103.145 134.021 103.113C134.071 103.081 134.136 103.065 134.218 103.065C134.299 103.065 134.385 103.097 134.475 103.16C134.565 103.224 134.674 103.294 134.8 103.37C134.931 103.447 135.087 103.517 135.268 103.581C135.453 103.644 135.684 103.675 135.959 103.675C136.194 103.675 136.4 103.646 136.576 103.587C136.752 103.524 136.899 103.44 137.017 103.337C137.134 103.233 137.22 103.113 137.274 102.977C137.333 102.842 137.362 102.697 137.362 102.544C137.362 102.354 137.31 102.198 137.207 102.076C137.107 101.949 136.974 101.843 136.807 101.757C136.639 101.667 136.447 101.59 136.231 101.527C136.018 101.459 135.799 101.389 135.573 101.317C135.352 101.244 135.133 101.163 134.916 101.073C134.703 100.978 134.513 100.86 134.346 100.72C134.179 100.58 134.044 100.409 133.94 100.205C133.84 99.9974 133.791 99.7466 133.791 99.4529C133.791 99.1908 133.845 98.9401 133.953 98.7006C134.062 98.4566 134.22 98.2442 134.428 98.0635C134.635 97.8782 134.891 97.7313 135.194 97.6229C135.496 97.5145 135.842 97.4602 136.231 97.4602C136.682 97.4602 137.087 97.5325 137.444 97.6771C137.805 97.8172 138.117 98.0115 138.379 98.26L138.108 98.7006ZM140.054 104.435V94.4509H141.261V98.4905C141.555 98.1787 141.88 97.9302 142.237 97.7449C142.594 97.5551 143.005 97.4602 143.47 97.4602C143.845 97.4602 144.175 97.5235 144.46 97.65C144.749 97.772 144.989 97.9482 145.178 98.1787C145.373 98.4046 145.52 98.678 145.619 98.9988C145.718 99.3196 145.768 99.6743 145.768 100.063V104.435H144.562V100.063C144.562 99.5433 144.442 99.1411 144.202 98.8565C143.967 98.5673 143.606 98.4227 143.118 98.4227C142.761 98.4227 142.427 98.5085 142.115 98.6802C141.808 98.8519 141.523 99.0846 141.261 99.3783V104.435H140.054ZM150.398 104.435V94.722H153.495C154.092 94.722 154.604 94.7808 155.034 94.8982C155.467 95.0157 155.822 95.1829 156.098 95.3998C156.378 95.6167 156.584 95.8833 156.715 96.1996C156.85 96.5113 156.918 96.8638 156.918 97.2569C156.918 97.4964 156.879 97.7268 156.803 97.9482C156.73 98.1696 156.617 98.3752 156.464 98.565C156.315 98.7548 156.125 98.9242 155.894 99.0733C155.669 99.2225 155.402 99.3445 155.095 99.4393C155.804 99.5794 156.34 99.8347 156.701 100.205C157.062 100.576 157.243 101.064 157.243 101.669C157.243 102.08 157.166 102.455 157.013 102.794C156.864 103.133 156.642 103.425 156.349 103.669C156.059 103.913 155.702 104.102 155.278 104.238C154.857 104.369 154.376 104.435 153.834 104.435H150.398ZM151.713 100.009V103.391H153.814C154.189 103.391 154.51 103.348 154.776 103.262C155.047 103.176 155.269 103.056 155.44 102.903C155.617 102.745 155.745 102.559 155.827 102.347C155.908 102.13 155.949 101.893 155.949 101.635C155.949 101.134 155.77 100.738 155.413 100.449C155.061 100.156 154.525 100.009 153.807 100.009H151.713ZM151.713 99.0733H153.448C153.818 99.0733 154.139 99.0327 154.41 98.9513C154.681 98.87 154.905 98.7571 155.081 98.6125C155.262 98.4679 155.395 98.2939 155.481 98.0906C155.567 97.8827 155.61 97.6568 155.61 97.4128C155.61 96.8435 155.438 96.4255 155.095 96.1589C154.751 95.8923 154.218 95.759 153.495 95.759H151.713V99.0733ZM164.027 104.435H163.492C163.374 104.435 163.279 104.416 163.207 104.38C163.135 104.344 163.087 104.267 163.065 104.15L162.929 103.513C162.748 103.675 162.572 103.822 162.401 103.953C162.229 104.08 162.048 104.188 161.858 104.279C161.669 104.365 161.465 104.43 161.248 104.475C161.036 104.52 160.799 104.543 160.537 104.543C160.27 104.543 160.019 104.507 159.784 104.435C159.554 104.358 159.353 104.245 159.181 104.096C159.009 103.947 158.872 103.759 158.768 103.533C158.668 103.303 158.619 103.032 158.619 102.72C158.619 102.449 158.693 102.189 158.842 101.94C158.991 101.687 159.231 101.464 159.561 101.269C159.895 101.075 160.331 100.917 160.869 100.795C161.406 100.668 162.064 100.596 162.841 100.578V100.043C162.841 99.5094 162.726 99.1072 162.495 98.8361C162.27 98.5605 161.933 98.4227 161.486 98.4227C161.192 98.4227 160.943 98.4611 160.74 98.5379C160.541 98.6102 160.367 98.6938 160.218 98.7887C160.074 98.8791 159.947 98.9626 159.839 99.0395C159.735 99.1118 159.631 99.1479 159.527 99.1479C159.445 99.1479 159.373 99.1276 159.31 99.0869C159.251 99.0417 159.204 98.9875 159.168 98.9242L158.951 98.5379C159.33 98.1719 159.739 97.8985 160.177 97.7178C160.616 97.5371 161.101 97.4467 161.635 97.4467C162.019 97.4467 162.36 97.5099 162.658 97.6365C162.956 97.763 163.207 97.9392 163.41 98.1651C163.614 98.3911 163.767 98.6644 163.871 98.9852C163.975 99.3061 164.027 99.6585 164.027 100.043V104.435ZM160.896 103.696C161.108 103.696 161.303 103.675 161.479 103.635C161.655 103.59 161.82 103.529 161.974 103.452C162.132 103.37 162.281 103.273 162.421 103.16C162.565 103.047 162.706 102.919 162.841 102.774V101.344C162.285 101.362 161.813 101.407 161.425 101.479C161.036 101.547 160.72 101.638 160.476 101.751C160.232 101.864 160.053 101.997 159.94 102.15C159.832 102.304 159.778 102.476 159.778 102.666C159.778 102.846 159.807 103.002 159.866 103.133C159.924 103.264 160.003 103.373 160.103 103.459C160.202 103.54 160.32 103.601 160.455 103.642C160.591 103.678 160.738 103.696 160.896 103.696ZM170.538 98.7887C170.502 98.8384 170.466 98.8768 170.43 98.9039C170.394 98.931 170.342 98.9446 170.274 98.9446C170.206 98.9446 170.132 98.9175 170.05 98.8632C169.974 98.8045 169.874 98.7412 169.752 98.6735C169.63 98.6057 169.481 98.5447 169.305 98.4905C169.133 98.4317 168.921 98.4023 168.668 98.4023C168.333 98.4023 168.037 98.4633 167.78 98.5853C167.522 98.7028 167.305 98.8745 167.129 99.1005C166.958 99.3264 166.826 99.5998 166.736 99.9206C166.65 100.241 166.607 100.601 166.607 100.998C166.607 101.414 166.655 101.784 166.75 102.11C166.845 102.431 166.978 102.702 167.15 102.923C167.321 103.14 167.529 103.307 167.773 103.425C168.022 103.538 168.3 103.594 168.607 103.594C168.9 103.594 169.142 103.56 169.332 103.492C169.522 103.42 169.68 103.341 169.806 103.255C169.933 103.169 170.037 103.093 170.118 103.025C170.2 102.952 170.281 102.916 170.362 102.916C170.466 102.916 170.543 102.955 170.593 103.032L170.932 103.472C170.633 103.838 170.261 104.107 169.813 104.279C169.366 104.446 168.894 104.529 168.397 104.529C167.967 104.529 167.568 104.45 167.197 104.292C166.831 104.134 166.512 103.906 166.241 103.608C165.97 103.305 165.756 102.934 165.597 102.496C165.444 102.058 165.367 101.559 165.367 100.998C165.367 100.488 165.437 100.015 165.577 99.5817C165.722 99.1479 165.93 98.7751 166.201 98.4633C166.476 98.1471 166.815 97.9008 167.217 97.7246C167.619 97.5483 168.08 97.4602 168.6 97.4602C169.079 97.4602 169.504 97.5393 169.874 97.6975C170.245 97.8511 170.572 98.0702 170.857 98.3549L170.538 98.7887ZM173.437 94.4509V100.327H173.748C173.839 100.327 173.913 100.316 173.972 100.293C174.031 100.266 174.096 100.214 174.169 100.137L176.337 97.8127C176.405 97.7404 176.473 97.6816 176.541 97.6365C176.609 97.5913 176.699 97.5687 176.812 97.5687H177.91L175.382 100.259C175.319 100.336 175.255 100.404 175.192 100.463C175.133 100.522 175.066 100.573 174.989 100.619C175.07 100.673 175.142 100.736 175.206 100.808C175.273 100.876 175.337 100.955 175.395 101.046L178.079 104.435H176.995C176.896 104.435 176.81 104.416 176.737 104.38C176.67 104.34 176.604 104.279 176.541 104.197L174.284 101.385C174.216 101.29 174.148 101.229 174.08 101.202C174.013 101.17 173.911 101.154 173.775 101.154H173.437V104.435H172.223V94.4509H173.437ZM190.52 99.5817C190.52 100.309 190.405 100.971 190.175 101.568C189.944 102.164 189.619 102.675 189.199 103.099C188.778 103.524 188.275 103.854 187.687 104.089C187.1 104.319 186.449 104.435 185.735 104.435H182.102V94.722H185.735C186.449 94.722 187.1 94.8395 187.687 95.0745C188.275 95.3049 188.778 95.6348 189.199 96.064C189.619 96.4888 189.944 96.9993 190.175 97.5958C190.405 98.1922 190.52 98.8542 190.52 99.5817ZM189.172 99.5817C189.172 98.9852 189.09 98.4521 188.928 97.9821C188.765 97.5122 188.534 97.1146 188.236 96.7892C187.938 96.4639 187.576 96.2154 187.152 96.0437C186.727 95.872 186.255 95.7861 185.735 95.7861H183.424V103.37H185.735C186.255 103.37 186.727 103.285 187.152 103.113C187.576 102.941 187.938 102.695 188.236 102.374C188.534 102.049 188.765 101.651 188.928 101.181C189.09 100.711 189.172 100.178 189.172 99.5817ZM193.163 97.5687V101.947C193.163 102.467 193.282 102.869 193.522 103.154C193.761 103.438 194.123 103.581 194.606 103.581C194.959 103.581 195.291 103.497 195.603 103.33C195.914 103.163 196.201 102.93 196.463 102.632V97.5687H197.67V104.435H196.951C196.78 104.435 196.671 104.351 196.626 104.184L196.531 103.445C196.233 103.775 195.899 104.041 195.528 104.245C195.158 104.444 194.733 104.543 194.254 104.543C193.879 104.543 193.547 104.482 193.258 104.36C192.973 104.233 192.733 104.057 192.539 103.831C192.345 103.605 192.198 103.332 192.099 103.011C192.004 102.69 191.956 102.336 191.956 101.947V97.5687H193.163ZM202.369 97.4602C202.78 97.4602 203.16 97.5303 203.508 97.6703C203.856 97.8059 204.156 98.0047 204.409 98.2668C204.662 98.5243 204.859 98.8452 204.999 99.2292C205.143 99.6088 205.216 100.043 205.216 100.531C205.216 100.72 205.195 100.847 205.155 100.91C205.114 100.973 205.037 101.005 204.924 101.005H200.356C200.365 101.439 200.424 101.816 200.532 102.137C200.641 102.458 200.79 102.727 200.98 102.943C201.169 103.156 201.395 103.316 201.657 103.425C201.92 103.529 202.213 103.581 202.539 103.581C202.841 103.581 203.101 103.547 203.318 103.479C203.539 103.407 203.729 103.33 203.887 103.248C204.045 103.167 204.177 103.093 204.28 103.025C204.389 102.952 204.482 102.916 204.558 102.916C204.658 102.916 204.735 102.955 204.789 103.032L205.128 103.472C204.979 103.653 204.8 103.811 204.592 103.947C204.384 104.078 204.161 104.186 203.921 104.272C203.686 104.358 203.442 104.421 203.189 104.462C202.936 104.507 202.685 104.529 202.437 104.529C201.962 104.529 201.524 104.45 201.122 104.292C200.724 104.13 200.379 103.895 200.085 103.587C199.796 103.276 199.57 102.891 199.407 102.435C199.245 101.979 199.163 101.455 199.163 100.863C199.163 100.384 199.236 99.9364 199.38 99.5207C199.529 99.105 199.742 98.7458 200.017 98.443C200.293 98.1358 200.629 97.8963 201.027 97.7246C201.425 97.5483 201.872 97.4602 202.369 97.4602ZM202.396 98.3481C201.813 98.3481 201.355 98.5176 201.02 98.8565C200.686 99.1908 200.478 99.6562 200.397 100.253H204.131C204.131 99.9725 204.093 99.7172 204.016 99.4868C203.939 99.2518 203.826 99.0508 203.677 98.8836C203.528 98.7119 203.345 98.5808 203.128 98.4905C202.916 98.3956 202.672 98.3481 202.396 98.3481Z" fill="#739CB7"/>
<rect x="117.037" y="142.527" width="72.2963" height="12.4259" rx="6.21296" fill="#DDE8EF"/>
</g>
<rect x="47.5648" y="75.3138" width="181.87" height="98.2778" rx="11.4352" stroke="#DDE8EF" stroke-width="1.12963"/>
</g>
<defs>
<filter id="filter0_d_8340_4074" x="14.2407" y="49.8972" width="248.519" height="164.926" filterUnits="userSpaceOnUse" color-interpolation-filters="sRGB">
<feFlood flood-opacity="0" result="BackgroundImageFix"/>
<feColorMatrix in="SourceAlpha" type="matrix" values="0 0 0 0 0 0 0 0 0 0 0 0 0 0 0 0 0 0 127 0" result="hardAlpha"/>
<feOffset dy="7.90741"/>
<feGaussianBlur stdDeviation="16.3796"/>
<feComposite in2="hardAlpha" operator="out"/>
<feColorMatrix type="matrix" values="0 0 0 0 0 0 0 0 0 0 0 0 0 0 0 0 0 0 0.2 0"/>
<feBlend mode="normal" in2="BackgroundImageFix" result="effect1_dropShadow_8340_4074"/>
<feBlend mode="normal" in="SourceGraphic" in2="effect1_dropShadow_8340_4074" result="shape"/>
</filter>
<clipPath id="clip0_8340_4074">
<rect x="47" y="74.749" width="183" height="99.4074" rx="12" fill="white"/>
</clipPath>
</defs>
</svg>
