<svg width="466" height="137" viewBox="0 0 466 137" fill="none" xmlns="http://www.w3.org/2000/svg">
<path d="M96.2861 16.0155C138.213 13.4204 171.945 40.3189 209.926 58.2928C268.343 85.938 355.754 86.7408 386.157 136.431H0V61.6092C28.0632 37.6396 59.4295 18.2967 96.2861 16.0155Z" fill="#2EA8E1"/>
<g filter="url(#filter0_d_8340_4072)">
<rect x="182" y="18.9307" width="259" height="76.5814" rx="12" fill="white"/>
<rect x="182.43" y="19.3609" width="258.14" height="75.7209" rx="11.5698" stroke="#F1F5F8" stroke-width="0.860465"/>
<path fill-rule="evenodd" clip-rule="evenodd" d="M217.887 40.8126C215.927 39.9394 213.738 39.7231 211.645 40.1959C209.553 40.6687 207.669 41.8053 206.275 43.4362C204.881 45.0672 204.051 47.105 203.91 49.2458C203.769 51.3866 204.324 53.5157 205.492 55.3155C206.659 57.1153 208.377 58.4895 210.39 59.233C212.402 59.9765 214.601 60.0495 216.659 59.4412C218.716 58.8329 220.522 57.5758 221.806 55.8575C223.091 54.1391 223.786 52.0515 223.787 49.9061V48.917C223.787 48.4715 224.148 48.1103 224.594 48.1103C225.039 48.1103 225.4 48.4715 225.4 48.917V49.9065C225.399 52.3999 224.592 54.8265 223.099 56.8235C221.606 58.8205 219.507 60.2814 217.116 60.9884C214.725 61.6953 212.17 61.6105 209.831 60.7464C207.492 59.8823 205.495 58.2853 204.138 56.1936C202.781 54.1019 202.136 51.6276 202.3 49.1396C202.465 46.6517 203.428 44.2834 205.048 42.388C206.668 40.4926 208.858 39.1717 211.29 38.6222C213.722 38.0727 216.266 38.3241 218.544 39.3389C218.951 39.5202 219.134 39.9971 218.952 40.4041C218.771 40.811 218.294 40.9939 217.887 40.8126ZM225.164 40.7312C225.479 41.046 225.479 41.5568 225.164 41.872L214.409 52.6386C214.257 52.79 214.052 52.8751 213.838 52.8751C213.624 52.8752 213.419 52.7902 213.267 52.6388L210.041 49.4121C209.726 49.0971 209.726 48.5863 210.041 48.2713C210.356 47.9562 210.867 47.9562 211.182 48.2713L213.838 50.9273L224.023 40.7317C224.338 40.4165 224.849 40.4163 225.164 40.7312Z" fill="#81C454"/>
<path d="M240.772 55H238.352L242.759 42.4841H245.558L249.97 55H247.55L244.207 45.0509H244.109L240.772 55ZM240.852 50.0927H247.452V51.9138H240.852V50.0927ZM251.521 58.5201V45.6131H253.696V47.1654H253.825C253.939 46.9372 254.1 46.6948 254.307 46.4381C254.515 46.1774 254.796 45.9553 255.151 45.772C255.505 45.5846 255.957 45.4909 256.507 45.4909C257.233 45.4909 257.886 45.6763 258.469 46.047C259.056 46.4137 259.52 46.9576 259.862 47.6787C260.209 48.3958 260.382 49.2758 260.382 50.3188C260.382 51.3495 260.213 52.2255 259.875 52.9466C259.537 53.6677 259.076 54.2178 258.494 54.5967C257.911 54.9756 257.251 55.165 256.513 55.165C255.976 55.165 255.53 55.0754 255.175 54.8961C254.821 54.7168 254.535 54.5009 254.32 54.2483C254.108 53.9916 253.943 53.7492 253.825 53.5211H253.733V58.5201H251.521ZM253.69 50.3066C253.69 50.9136 253.776 51.4453 253.947 51.9016C254.122 52.3579 254.372 52.7144 254.698 52.9711C255.028 53.2237 255.428 53.35 255.896 53.35C256.385 53.35 256.795 53.2196 257.125 52.9588C257.455 52.694 257.703 52.3335 257.87 51.8771C258.041 51.4168 258.127 50.8932 258.127 50.3066C258.127 49.7239 258.043 49.2065 257.876 48.7543C257.709 48.3021 257.461 47.9476 257.131 47.6909C256.801 47.4343 256.389 47.3059 255.896 47.3059C255.424 47.3059 255.022 47.4302 254.692 47.6787C254.362 47.9272 254.112 48.2756 253.941 48.7237C253.774 49.1719 253.69 49.6995 253.69 50.3066ZM262.276 58.5201V45.6131H264.452V47.1654H264.58C264.694 46.9372 264.855 46.6948 265.063 46.4381C265.271 46.1774 265.552 45.9553 265.906 45.772C266.261 45.5846 266.713 45.4909 267.263 45.4909C267.988 45.4909 268.642 45.6763 269.225 46.047C269.812 46.4137 270.276 46.9576 270.618 47.6787C270.965 48.3958 271.138 49.2758 271.138 50.3188C271.138 51.3495 270.969 52.2255 270.63 52.9466C270.292 53.6677 269.832 54.2178 269.249 54.5967C268.667 54.9756 268.007 55.165 267.269 55.165C266.731 55.165 266.285 55.0754 265.931 54.8961C265.576 54.7168 265.291 54.5009 265.075 54.2483C264.863 53.9916 264.698 53.7492 264.58 53.5211H264.489V58.5201H262.276ZM264.446 50.3066C264.446 50.9136 264.531 51.4453 264.703 51.9016C264.878 52.3579 265.128 52.7144 265.454 52.9711C265.784 53.2237 266.184 53.35 266.652 53.35C267.141 53.35 267.55 53.2196 267.88 52.9588C268.21 52.694 268.459 52.3335 268.626 51.8771C268.797 51.4168 268.883 50.8932 268.883 50.3066C268.883 49.7239 268.799 49.2065 268.632 48.7543C268.465 48.3021 268.217 47.9476 267.887 47.6909C267.557 47.4343 267.145 47.3059 266.652 47.3059C266.179 47.3059 265.778 47.4302 265.448 47.6787C265.118 47.9272 264.868 48.2756 264.696 48.7237C264.529 49.1719 264.446 49.6995 264.446 50.3066ZM277.127 55.1833C276.21 55.1833 275.416 54.9817 274.743 54.5783C274.071 54.175 273.55 53.6107 273.179 52.8855C272.812 52.1603 272.629 51.3129 272.629 50.3432C272.629 49.3736 272.812 48.5241 273.179 47.7948C273.55 47.0655 274.071 46.4992 274.743 46.0959C275.416 45.6926 276.21 45.4909 277.127 45.4909C278.043 45.4909 278.838 45.6926 279.51 46.0959C280.182 46.4992 280.702 47.0655 281.069 47.7948C281.439 48.5241 281.625 49.3736 281.625 50.3432C281.625 51.3129 281.439 52.1603 281.069 52.8855C280.702 53.6107 280.182 54.175 279.51 54.5783C278.838 54.9817 278.043 55.1833 277.127 55.1833ZM277.139 53.4111C277.636 53.4111 278.052 53.2746 278.386 53.0016C278.72 52.7246 278.968 52.3538 279.131 51.8894C279.298 51.4249 279.382 50.9075 279.382 50.3371C279.382 49.7627 279.298 49.2432 279.131 48.7787C278.968 48.3102 278.72 47.9374 278.386 47.6604C278.052 47.3833 277.636 47.2448 277.139 47.2448C276.63 47.2448 276.206 47.3833 275.868 47.6604C275.534 47.9374 275.283 48.3102 275.116 48.7787C274.953 49.2432 274.872 49.7627 274.872 50.3371C274.872 50.9075 274.953 51.4249 275.116 51.8894C275.283 52.3538 275.534 52.7246 275.868 53.0016C276.206 53.2746 276.63 53.4111 277.139 53.4111ZM283.502 55V45.6131H285.715V55H283.502ZM284.615 44.2809C284.264 44.2809 283.963 44.1647 283.71 43.9325C283.458 43.6962 283.331 43.4131 283.331 43.083C283.331 42.749 283.458 42.4658 283.71 42.2336C283.963 41.9973 284.264 41.8791 284.615 41.8791C284.969 41.8791 285.271 41.9973 285.519 42.2336C285.772 42.4658 285.898 42.749 285.898 43.083C285.898 43.4131 285.772 43.6962 285.519 43.9325C285.271 44.1647 284.969 44.2809 284.615 44.2809ZM290.202 49.4999V55H287.99V45.6131H290.104V47.2081H290.214C290.43 46.6826 290.774 46.265 291.247 45.9553C291.723 45.6457 292.312 45.4909 293.013 45.4909C293.661 45.4909 294.225 45.6294 294.706 45.9064C295.191 46.1835 295.565 46.5848 295.83 47.1104C296.099 47.6359 296.232 48.2735 296.227 49.0232V55H294.015V49.3654C294.015 48.738 293.852 48.2471 293.526 47.8926C293.204 47.5382 292.758 47.3609 292.188 47.3609C291.801 47.3609 291.457 47.4465 291.155 47.6176C290.858 47.7846 290.623 48.0271 290.452 48.3448C290.285 48.6626 290.202 49.0476 290.202 49.4999ZM303.164 45.6131V47.3243H297.768V45.6131H303.164ZM299.1 43.3642H301.312V52.1766C301.312 52.474 301.357 52.7022 301.446 52.8611C301.54 53.0159 301.662 53.1218 301.813 53.1788C301.964 53.2359 302.131 53.2644 302.314 53.2644C302.453 53.2644 302.579 53.2542 302.693 53.2338C302.811 53.2135 302.901 53.1951 302.962 53.1788L303.335 54.9083C303.217 54.9491 303.048 54.9939 302.828 55.0428C302.612 55.0917 302.347 55.1202 302.033 55.1283C301.479 55.1446 300.98 55.0611 300.536 54.8778C300.092 54.6904 299.739 54.4011 299.479 54.01C299.222 53.6189 299.096 53.13 299.1 52.5433V43.3642ZM305.014 55V45.6131H307.128V47.2081H307.238C307.434 46.6704 307.758 46.2507 308.21 45.9492C308.662 45.6437 309.202 45.4909 309.83 45.4909C310.465 45.4909 311.001 45.6457 311.437 45.9553C311.877 46.2609 312.187 46.6785 312.366 47.2081H312.464C312.671 46.6867 313.022 46.2711 313.515 45.9614C314.012 45.6477 314.6 45.4909 315.281 45.4909C316.145 45.4909 316.849 45.7639 317.395 46.3098C317.941 46.8557 318.214 47.6522 318.214 48.6993V55H315.996V49.0415C315.996 48.4589 315.841 48.0332 315.531 47.7643C315.222 47.4913 314.843 47.3548 314.395 47.3548C313.861 47.3548 313.443 47.5219 313.142 47.8559C312.845 48.1859 312.696 48.6158 312.696 49.1454V55H310.526V48.9499C310.526 48.465 310.38 48.078 310.086 47.7887C309.797 47.4994 309.418 47.3548 308.95 47.3548C308.632 47.3548 308.343 47.4363 308.082 47.5993C307.821 47.7582 307.613 47.9843 307.458 48.2776C307.304 48.5669 307.226 48.905 307.226 49.2921V55H305.014ZM324.614 55.1833C323.673 55.1833 322.86 54.9878 322.176 54.5967C321.496 54.2015 320.972 53.6433 320.605 52.9222C320.239 52.197 320.055 51.3434 320.055 50.3616C320.055 49.396 320.239 48.5485 320.605 47.8193C320.976 47.0859 321.493 46.5155 322.158 46.1081C322.822 45.6966 323.602 45.4909 324.498 45.4909C325.077 45.4909 325.623 45.5846 326.136 45.772C326.653 45.9553 327.11 46.2405 327.505 46.6276C327.904 47.0146 328.218 47.5076 328.446 48.1065C328.674 48.7013 328.788 49.4102 328.788 50.2332V50.9116H321.094V49.4204H326.668C326.664 48.9967 326.572 48.6198 326.393 48.2898C326.213 47.9558 325.963 47.693 325.641 47.5015C325.323 47.31 324.952 47.2143 324.529 47.2143C324.076 47.2143 323.679 47.3243 323.337 47.5443C322.995 47.7602 322.728 48.0454 322.536 48.3998C322.349 48.7502 322.253 49.1352 322.249 49.5549V50.8566C322.249 51.4025 322.349 51.871 322.549 52.2622C322.748 52.6492 323.027 52.9466 323.386 53.1544C323.744 53.3581 324.164 53.46 324.645 53.46C324.967 53.46 325.258 53.4151 325.519 53.3255C325.779 53.2318 326.006 53.0953 326.197 52.9161C326.389 52.7368 326.533 52.5148 326.631 52.2499L328.697 52.4822C328.566 53.0281 328.318 53.5048 327.951 53.9122C327.588 54.3155 327.124 54.6293 326.558 54.8533C325.991 55.0733 325.344 55.1833 324.614 55.1833ZM332.872 49.4999V55H330.66V45.6131H332.774V47.2081H332.884C333.1 46.6826 333.445 46.265 333.917 45.9553C334.394 45.6457 334.983 45.4909 335.683 45.4909C336.331 45.4909 336.895 45.6294 337.376 45.9064C337.861 46.1835 338.236 46.5848 338.501 47.1104C338.769 47.6359 338.902 48.2735 338.898 49.0232V55H336.686V49.3654C336.686 48.738 336.523 48.2471 336.197 47.8926C335.875 47.5382 335.429 47.3609 334.858 47.3609C334.471 47.3609 334.127 47.4465 333.825 47.6176C333.528 47.7846 333.294 48.0271 333.123 48.3448C332.956 48.6626 332.872 49.0476 332.872 49.4999ZM345.834 45.6131V47.3243H340.438V45.6131H345.834ZM341.77 43.3642H343.982V52.1766C343.982 52.474 344.027 52.7022 344.117 52.8611C344.211 53.0159 344.333 53.1218 344.484 53.1788C344.634 53.2359 344.801 53.2644 344.985 53.2644C345.123 53.2644 345.249 53.2542 345.364 53.2338C345.482 53.2135 345.571 53.1951 345.632 53.1788L346.005 54.9083C345.887 54.9491 345.718 54.9939 345.498 55.0428C345.282 55.0917 345.017 55.1202 344.704 55.1283C344.149 55.1446 343.65 55.0611 343.206 54.8778C342.762 54.6904 342.41 54.4011 342.149 54.01C341.892 53.6189 341.766 53.13 341.77 52.5433V43.3642ZM362.764 46.707H360.478C360.413 46.3322 360.293 46.0002 360.118 45.7109C359.942 45.4175 359.724 45.169 359.464 44.9653C359.203 44.7616 358.906 44.6088 358.571 44.507C358.241 44.401 357.885 44.3481 357.502 44.3481C356.822 44.3481 356.219 44.5192 355.693 44.8614C355.168 45.1996 354.756 45.6966 354.459 46.3526C354.161 47.0044 354.012 47.8009 354.012 48.7421C354.012 49.6995 354.161 50.5062 354.459 51.1621C354.76 51.814 355.172 52.307 355.693 52.6411C356.219 52.9711 356.82 53.1361 357.496 53.1361C357.871 53.1361 358.221 53.0872 358.547 52.9894C358.877 52.8875 359.172 52.7388 359.433 52.5433C359.698 52.3477 359.92 52.1073 360.099 51.8221C360.283 51.537 360.409 51.211 360.478 50.8443L362.764 50.8566C362.678 51.4514 362.493 52.0096 362.208 52.5311C361.927 53.0525 361.558 53.5129 361.102 53.9122C360.645 54.3074 360.112 54.617 359.5 54.8411C358.889 55.0611 358.211 55.1711 357.465 55.1711C356.365 55.1711 355.383 54.9165 354.52 54.4072C353.656 53.8979 352.976 53.1625 352.479 52.201C351.982 51.2395 351.733 50.0865 351.733 48.7421C351.733 47.3935 351.984 46.2405 352.485 45.2831C352.986 44.3216 353.668 43.5862 354.532 43.0769C355.396 42.5677 356.373 42.313 357.465 42.313C358.162 42.313 358.81 42.4108 359.409 42.6064C360.008 42.8019 360.541 43.0892 361.01 43.4681C361.478 43.8429 361.863 44.3033 362.165 44.8492C362.47 45.3911 362.67 46.0103 362.764 46.707ZM364.742 55V45.6131H366.887V47.1776H366.985C367.156 46.6357 367.45 46.2181 367.865 45.9248C368.285 45.6274 368.764 45.4787 369.301 45.4787C369.424 45.4787 369.56 45.4848 369.711 45.497C369.866 45.5051 369.994 45.5194 370.096 45.5398V47.5748C370.002 47.5422 369.853 47.5137 369.65 47.4893C369.45 47.4607 369.257 47.4465 369.069 47.4465C368.666 47.4465 368.303 47.5341 367.981 47.7093C367.664 47.8804 367.413 48.1187 367.23 48.4243C367.046 48.7298 366.955 49.0823 366.955 49.4815V55H364.742ZM375.335 55.1833C374.394 55.1833 373.581 54.9878 372.896 54.5967C372.216 54.2015 371.692 53.6433 371.326 52.9222C370.959 52.197 370.776 51.3434 370.776 50.3616C370.776 49.396 370.959 48.5485 371.326 47.8193C371.696 47.0859 372.214 46.5155 372.878 46.1081C373.542 45.6966 374.322 45.4909 375.219 45.4909C375.797 45.4909 376.343 45.5846 376.856 45.772C377.374 45.9553 377.83 46.2405 378.225 46.6276C378.625 47.0146 378.938 47.5076 379.166 48.1065C379.395 48.7013 379.509 49.4102 379.509 50.2332V50.9116H371.815V49.4204H377.388C377.384 48.9967 377.292 48.6198 377.113 48.2898C376.934 47.9558 376.683 47.693 376.361 47.5015C376.044 47.31 375.673 47.2143 375.249 47.2143C374.797 47.2143 374.4 47.3243 374.057 47.5443C373.715 47.7602 373.448 48.0454 373.257 48.3998C373.069 48.7502 372.974 49.1352 372.97 49.5549V50.8566C372.97 51.4025 373.069 51.871 373.269 52.2622C373.469 52.6492 373.748 52.9466 374.106 53.1544C374.465 53.3581 374.884 53.46 375.365 53.46C375.687 53.46 375.978 53.4151 376.239 53.3255C376.5 53.2318 376.726 53.0953 376.917 52.9161C377.109 52.7368 377.254 52.5148 377.351 52.2499L379.417 52.4822C379.287 53.0281 379.038 53.5048 378.671 53.9122C378.309 54.3155 377.844 54.6293 377.278 54.8533C376.712 55.0733 376.064 55.1833 375.335 55.1833ZM384.081 55.1894C383.487 55.1894 382.951 55.0835 382.474 54.8717C382.002 54.6557 381.627 54.3379 381.35 53.9183C381.077 53.4987 380.94 52.9812 380.94 52.366C380.94 51.8364 381.038 51.3984 381.234 51.0521C381.429 50.7058 381.696 50.4288 382.034 50.221C382.372 50.0132 382.753 49.8564 383.177 49.7504C383.605 49.6404 384.047 49.561 384.503 49.5121C385.053 49.4551 385.499 49.4041 385.841 49.3593C386.184 49.3104 386.432 49.2371 386.587 49.1393C386.746 49.0374 386.825 48.8806 386.825 48.6687V48.6321C386.825 48.1717 386.689 47.8152 386.416 47.5626C386.143 47.31 385.75 47.1837 385.236 47.1837C384.695 47.1837 384.265 47.3019 383.947 47.5382C383.633 47.7745 383.421 48.0535 383.311 48.3754L381.246 48.0821C381.409 47.5117 381.678 47.035 382.052 46.652C382.427 46.265 382.886 45.9757 383.427 45.7842C383.969 45.5887 384.568 45.4909 385.224 45.4909C385.676 45.4909 386.127 45.5438 386.575 45.6498C387.023 45.7557 387.432 45.9309 387.803 46.1753C388.174 46.4157 388.471 46.7437 388.695 47.1593C388.924 47.5748 389.038 48.0943 389.038 48.7176V55H386.911V53.7105H386.838C386.703 53.9713 386.514 54.2157 386.269 54.4439C386.029 54.668 385.725 54.8493 385.359 54.9878C384.996 55.1222 384.57 55.1894 384.081 55.1894ZM384.656 53.5639C385.1 53.5639 385.485 53.4763 385.811 53.3011C386.137 53.1218 386.387 52.8855 386.563 52.5922C386.742 52.2988 386.831 51.979 386.831 51.6327V50.5266C386.762 50.5836 386.644 50.6366 386.477 50.6855C386.314 50.7343 386.131 50.7771 385.927 50.8138C385.723 50.8505 385.522 50.883 385.322 50.9116C385.122 50.9401 384.949 50.9645 384.803 50.9849C384.473 51.0297 384.177 51.1031 383.916 51.2049C383.656 51.3068 383.45 51.4494 383.299 51.6327C383.148 51.812 383.073 52.0442 383.073 52.3294C383.073 52.7368 383.222 53.0444 383.519 53.2522C383.817 53.46 384.195 53.5639 384.656 53.5639ZM395.949 45.6131V47.3243H390.553V45.6131H395.949ZM391.885 43.3642H394.098V52.1766C394.098 52.474 394.143 52.7022 394.232 52.8611C394.326 53.0159 394.448 53.1218 394.599 53.1788C394.75 53.2359 394.917 53.2644 395.1 53.2644C395.239 53.2644 395.365 53.2542 395.479 53.2338C395.597 53.2135 395.687 53.1951 395.748 53.1788L396.121 54.9083C396.002 54.9491 395.833 54.9939 395.613 55.0428C395.397 55.0917 395.133 55.1202 394.819 55.1283C394.265 55.1446 393.766 55.0611 393.322 54.8778C392.878 54.6904 392.525 54.4011 392.264 54.01C392.008 53.6189 391.881 53.13 391.885 52.5433V43.3642ZM401.854 55.1833C400.913 55.1833 400.101 54.9878 399.416 54.5967C398.736 54.2015 398.212 53.6433 397.845 52.9222C397.479 52.197 397.295 51.3434 397.295 50.3616C397.295 49.396 397.479 48.5485 397.845 47.8193C398.216 47.0859 398.734 46.5155 399.398 46.1081C400.062 45.6966 400.842 45.4909 401.738 45.4909C402.317 45.4909 402.863 45.5846 403.376 45.772C403.894 45.9553 404.35 46.2405 404.745 46.6276C405.144 47.0146 405.458 47.5076 405.686 48.1065C405.914 48.7013 406.028 49.4102 406.028 50.2332V50.9116H398.334V49.4204H403.908C403.904 48.9967 403.812 48.6198 403.633 48.2898C403.454 47.9558 403.203 47.693 402.881 47.5015C402.563 47.31 402.193 47.2143 401.769 47.2143C401.317 47.2143 400.919 47.3243 400.577 47.5443C400.235 47.7602 399.968 48.0454 399.777 48.3998C399.589 48.7502 399.493 49.1352 399.489 49.5549V50.8566C399.489 51.4025 399.589 51.871 399.789 52.2622C399.988 52.6492 400.268 52.9466 400.626 53.1544C400.985 53.3581 401.404 53.46 401.885 53.46C402.207 53.46 402.498 53.4151 402.759 53.3255C403.02 53.2318 403.246 53.0953 403.437 52.9161C403.629 52.7368 403.773 52.5148 403.871 52.2499L405.937 52.4822C405.806 53.0281 405.558 53.5048 405.191 53.9122C404.829 54.3155 404.364 54.6293 403.798 54.8533C403.232 55.0733 402.584 55.1833 401.854 55.1833ZM411.383 55.165C410.646 55.165 409.986 54.9756 409.403 54.5967C408.821 54.2178 408.36 53.6677 408.022 52.9466C407.684 52.2255 407.515 51.3495 407.515 50.3188C407.515 49.2758 407.686 48.3958 408.028 47.6787C408.375 46.9576 408.841 46.4137 409.428 46.047C410.015 45.6763 410.668 45.4909 411.39 45.4909C411.94 45.4909 412.392 45.5846 412.746 45.772C413.101 45.9553 413.382 46.1774 413.59 46.4381C413.797 46.6948 413.958 46.9372 414.072 47.1654H414.164V42.4841H416.382V55H414.207V53.5211H414.072C413.958 53.7492 413.793 53.9916 413.577 54.2483C413.361 54.5009 413.076 54.7168 412.722 54.8961C412.367 55.0754 411.921 55.165 411.383 55.165ZM412.001 53.35C412.469 53.35 412.868 53.2237 413.198 52.9711C413.528 52.7144 413.779 52.3579 413.95 51.9016C414.121 51.4453 414.207 50.9136 414.207 50.3066C414.207 49.6995 414.121 49.1719 413.95 48.7237C413.783 48.2756 413.535 47.9272 413.205 47.6787C412.879 47.4302 412.477 47.3059 412.001 47.3059C411.508 47.3059 411.096 47.4343 410.766 47.6909C410.436 47.9476 410.188 48.3021 410.021 48.7543C409.854 49.2065 409.77 49.7239 409.77 50.3066C409.77 50.8932 409.854 51.4168 410.021 51.8771C410.192 52.3335 410.442 52.694 410.772 52.9588C411.106 53.2196 411.516 53.35 412.001 53.35Z" fill="#21506A"/>
<rect x="237.931" y="68.8838" width="106.698" height="9.46512" rx="4.73256" fill="#DDE8EF"/>
</g>
<defs>
<filter id="filter0_d_8340_4072" x="157.047" y="0.000432491" width="308.907" height="126.488" filterUnits="userSpaceOnUse" color-interpolation-filters="sRGB">
<feFlood flood-opacity="0" result="BackgroundImageFix"/>
<feColorMatrix in="SourceAlpha" type="matrix" values="0 0 0 0 0 0 0 0 0 0 0 0 0 0 0 0 0 0 127 0" result="hardAlpha"/>
<feOffset dy="6.02326"/>
<feGaussianBlur stdDeviation="12.4767"/>
<feComposite in2="hardAlpha" operator="out"/>
<feColorMatrix type="matrix" values="0 0 0 0 0 0 0 0 0 0 0 0 0 0 0 0 0 0 0.2 0"/>
<feBlend mode="normal" in2="BackgroundImageFix" result="effect1_dropShadow_8340_4072"/>
<feBlend mode="normal" in="SourceGraphic" in2="effect1_dropShadow_8340_4072" result="shape"/>
</filter>
</defs>
</svg>
