<svg width="219" height="22" viewBox="0 0 219 22" fill="none" xmlns="http://www.w3.org/2000/svg">
<g clip-path="url(#clip0_8070_146)">
<path d="M123.456 0H101.408V22H123.456V0Z" fill="#33B079"/>
<path d="M147.342 0H125.294V22H147.342V0Z" fill="#33B079"/>
<path d="M171.226 0H149.178V22H171.226V0Z" fill="#33B079"/>
<path d="M195.108 0H173.062V22H195.108V0Z" fill="#33B079"/>
<path d="M120.148 9.25888H114.247L112.432 3.71338L110.618 9.25888H104.716L109.492 12.6965L107.678 18.242L112.454 14.8044L115.394 12.6965L120.148 9.25888ZM112.432 14.8275L115.785 13.98L117.185 18.2881L112.431 14.8275H112.432Z" fill="white"/>
<path d="M144.034 9.25888H138.132L136.318 3.71338L134.503 9.25888H128.602L133.378 12.6965L131.563 18.242L136.34 14.8044L139.28 12.6965L144.034 9.25888ZM136.317 14.8275L139.669 13.98L141.07 18.2881L136.315 14.8275H136.317Z" fill="white"/>
<path d="M167.918 9.25888H162.016L160.202 3.71338L158.387 9.25888H152.485L157.262 12.6965L155.447 18.242L160.223 14.8044L163.164 12.6965L167.918 9.25888ZM160.202 14.8275L163.554 13.98L164.955 18.2881L160.2 14.8275H160.202Z" fill="white"/>
<path d="M191.803 9.25888H185.901L184.086 3.71338L182.272 9.25888H176.37L181.146 12.6965L179.332 18.242L184.108 14.8044L187.048 12.6965L191.803 9.25888ZM184.085 14.8275L187.438 13.98L188.838 18.2881L184.084 14.8275H184.085Z" fill="white"/>
<path d="M218.995 0H196.947V22H218.995V0Z" fill="#33B079"/>
<path d="M215.687 9.25888H209.785L207.97 3.71338L206.156 9.25888H200.254L205.03 12.6965L203.216 18.242L207.992 14.8044L210.932 12.6965L215.687 9.25888ZM207.97 14.8275L211.323 13.98L212.723 18.2881L207.969 14.8275H207.97Z" fill="white"/>
<path d="M0.00585938 18.4049V3.87085H9.28477V6.8059H3.21543V9.53587H9.01662V12.4098H3.21543V15.4685H9.3256V18.4035H0.00585938V18.4049Z" fill="black"/>
<path d="M10.662 18.4048L14.2418 13.0875L10.6416 7.85303H14.1602L16.2168 11.1996L18.2735 7.85303H21.5444L18.0476 12.9435L21.7512 18.4035H18.1919L16.0726 14.8518L13.9328 18.4035H10.662V18.4048Z" fill="black"/>
<path d="M27.5323 18.6508C25.8866 18.6508 24.5459 18.1347 23.5101 17.1011C22.4743 16.0675 21.957 14.7433 21.957 13.1284C21.957 11.5135 22.4743 10.1716 23.5101 9.14615C24.5459 8.11935 25.8935 7.60596 27.5527 7.60596C28.9656 7.60596 30.162 7.98625 31.1434 8.74548C32.1234 9.50471 32.7305 10.5071 32.9646 11.7525H29.8176C29.6665 11.2731 29.3861 10.8969 28.9737 10.6239C28.5627 10.3509 28.089 10.2137 27.554 10.2137C26.8136 10.2137 26.2092 10.4799 25.7437 11.0137C25.2769 11.5474 25.0441 12.2523 25.0441 13.1284C25.0441 14.0044 25.2769 14.7093 25.7437 15.2431C26.2092 15.7768 26.8136 16.043 27.554 16.043C28.089 16.043 28.5627 15.9059 28.9737 15.6329C29.3848 15.3599 29.6665 14.9823 29.8176 14.5042H32.9646C32.7318 15.7497 32.1248 16.752 31.1434 17.5113C30.162 18.2705 28.9587 18.6508 27.5323 18.6508Z" fill="black"/>
<path d="M39.6709 18.6508C38.0117 18.6508 36.6669 18.1306 35.6392 17.0902C34.6102 16.0498 34.0957 14.7297 34.0957 13.1284C34.0957 11.5271 34.6034 10.2069 35.6175 9.16652C36.6329 8.12614 37.9423 7.60596 39.5471 7.60596C41.1519 7.60596 42.4654 8.12207 43.4862 9.15565C44.5084 10.1892 45.0189 11.5135 45.0189 13.1284C45.0189 13.347 45.0053 13.5671 44.978 13.7857H37.2222C37.3325 14.5246 37.6034 15.11 38.0349 15.5405C38.4663 15.9711 39.0121 16.187 39.6709 16.187C40.1365 16.187 40.5516 16.0702 40.915 15.838C41.2784 15.6057 41.5493 15.2974 41.7276 14.9144H44.8964C44.567 16.0634 43.9395 16.9748 43.0139 17.6444C42.0883 18.3153 40.9736 18.6508 39.6709 18.6508ZM37.3039 12.0201H41.8501C41.699 11.4184 41.4309 10.9417 41.0484 10.594C40.6646 10.2449 40.1773 10.0711 39.5879 10.0711C38.9985 10.0711 38.5085 10.2463 38.1165 10.594C37.7245 10.9417 37.455 11.4184 37.3039 12.0201Z" fill="black"/>
<path d="M46.6035 18.4049V3.95235L49.6484 2.98804V18.4049H46.6035Z" fill="black"/>
<path d="M51.7266 18.4049V3.95235L54.7714 2.98804V18.4049H51.7266Z" fill="black"/>
<path d="M61.9717 18.6508C60.3125 18.6508 58.9677 18.1306 57.94 17.0902C56.911 16.0498 56.3965 14.7297 56.3965 13.1284C56.3965 11.5271 56.9042 10.2069 57.9182 9.16652C58.9337 8.12614 60.2431 7.60596 61.8479 7.60596C63.4526 7.60596 64.7661 8.12207 65.787 9.15565C66.8092 10.1892 67.3197 11.5135 67.3197 13.1284C67.3197 13.347 67.306 13.5671 67.2788 13.7857H59.523C59.6333 14.5246 59.9041 15.11 60.3356 15.5405C60.7671 15.9711 61.3129 16.187 61.9717 16.187C62.4372 16.187 62.8524 16.0702 63.2158 15.838C63.5792 15.6057 63.8501 15.2974 64.0284 14.9144H67.1971C66.8678 16.0634 66.2403 16.9748 65.3147 17.6444C64.3891 18.3153 63.2743 18.6508 61.9717 18.6508ZM59.6047 12.0201H64.1509C63.9998 11.4184 63.7317 10.9417 63.3492 10.594C62.9654 10.2449 62.4781 10.0711 61.8887 10.0711C61.2993 10.0711 60.8093 10.2463 60.4173 10.594C60.0253 10.9417 59.7558 11.4184 59.6047 12.0201Z" fill="black"/>
<path d="M68.9043 18.4048V7.85301H71.7436V9.26961C72.4024 8.16132 73.4573 7.60718 74.9124 7.60718C76.0639 7.60718 76.9827 7.96302 77.6687 8.67472C78.3547 9.38641 78.6977 10.3928 78.6977 11.6926V18.4048H75.6528V12.2875C75.6528 10.9049 75.0839 10.2135 73.946 10.2135C73.3008 10.2135 72.8067 10.4322 72.465 10.8709C72.122 11.3096 71.9505 11.9249 71.9505 12.7181V18.4048H68.9057H68.9043Z" fill="black"/>
<path d="M85.3 18.6508C84.1199 18.6508 83.212 18.3289 82.5737 17.6864C81.9353 17.0427 81.6168 16.0987 81.6168 14.8532V10.4609H79.7656V7.85313H81.6794V5.36899L84.663 4.42505V7.85313H87.5024V10.4609H84.663V14.6278C84.663 15.5717 85.1435 16.0444 86.1031 16.0444C86.5836 16.0444 87.0491 15.9412 87.5024 15.7361V18.2202C86.8027 18.5081 86.0691 18.6508 85.3014 18.6508H85.3Z" fill="black"/>
</g>
<defs>
<clipPath id="clip0_8070_146">
<rect width="219" height="22" fill="white"/>
</clipPath>
</defs>
</svg>
